<?xml version="1.0" encoding="UTF-8" standalone="no"?>
<!DOCTYPE svg PUBLIC "-//W3C//DTD SVG 1.1//EN" "http://www.w3.org/Graphics/SVG/1.1/DTD/svg11.dtd">
<svg width="100%" height="100%" viewBox="0 0 1798 423" version="1.1" xmlns="http://www.w3.org/2000/svg" xmlns:xlink="http://www.w3.org/1999/xlink" xml:space="preserve" xmlns:serif="http://www.serif.com/" style="fill-rule:evenodd;clip-rule:evenodd;stroke-linejoin:round;stroke-miterlimit:2;">
    <g transform="matrix(1,0,0,1,-1652.15,-755.127)">
        <g transform="matrix(4.16667,0,0,4.16667,1743.95,923.716)">
            <path d="M0,-5.7L-22.252,-14.436L-3.792,8.736L0,-5.7Z" style="fill:rgb(43,55,116);fill-rule:nonzero;"/>
        </g>
        <g transform="matrix(-0.555419,4.12948,4.12948,0.555419,1837.6,1116.24)">
            <path d="M-5.347,-11.614L13.145,-11.614L-6.316,-4.404L-7.363,-11.905L-5.347,-11.614Z" style="fill:rgb(43,55,116);fill-rule:nonzero;"/>
        </g>
        <g transform="matrix(0.30412,4.15555,4.15555,-0.30412,1887.74,1119.56)">
            <path d="M-5.2,-10.848L13.283,-10.848L-6.109,-3.864L-7.217,-11.129L-5.2,-10.848Z" style="fill:rgb(43,55,116);fill-rule:nonzero;"/>
        </g>
        <g transform="matrix(4.16667,0,0,4.16667,1961.04,1094.13)">
            <path d="M0,-12.34L14.363,6.375L23.601,-4.59L7.408,-18.715" style="fill:rgb(43,55,116);fill-rule:nonzero;"/>
        </g>
        <g transform="matrix(0,-4.16667,-4.16667,0,1888.31,827.864)">
            <path d="M-21.297,-5.515C-38.354,-5.515 -44.291,-8.23 -44.291,7.043C-44.291,24.012 -38.354,19.6 -21.297,19.6C-4.239,19.6 17.479,13.978 17.479,7.043C17.479,0.108 -4.239,-5.515 -21.297,-5.515" style="fill:rgb(43,55,116);fill-rule:nonzero;"/>
        </g>
        <g transform="matrix(4.16667,0,0,4.16667,1766.7,937.238)">
            <path d="M0,7.333C-2.074,7.333 -3.755,5.652 -3.755,3.579C-3.755,1.504 -2.074,-0.177 0,-0.177C2.074,-0.177 3.755,1.504 3.755,3.578C3.755,5.652 2.074,7.333 0,7.333M78.468,24.575L58.496,16.647L58.318,16.958C58.36,16.855 58.402,16.753 58.443,16.651L47.592,12.319C49.004,10.497 50.588,8.423 52.442,6.144C63.21,-7.085 72.56,-27.478 67.181,-31.856C61.802,-36.234 43.731,-22.939 32.964,-9.71C28.483,-4.205 24.626,-0.676 22.597,2.341L-10.125,-10.722C-17.684,8.212 -8.462,29.689 10.473,37.248C26.302,43.567 43.908,38.159 53.674,25.151L73.408,37.991L78.468,24.575Z" style="fill:white;fill-rule:nonzero;"/>
        </g>
        <g transform="matrix(4.16667,0,0,4.16667,0,0)">
            <g transform="matrix(98.3253,0,0,98.3253,527.756,262.553)">
                <path d="M0.081,-0.012C0.26,0.036 0.462,0.007 0.462,-0.148C0.462,-0.224 0.415,-0.272 0.317,-0.297L0.204,-0.326C0.182,-0.331 0.169,-0.343 0.169,-0.359C0.169,-0.405 0.284,-0.4 0.381,-0.379C0.413,-0.372 0.432,-0.386 0.432,-0.419L0.432,-0.431C0.432,-0.458 0.42,-0.476 0.393,-0.482C0.217,-0.526 0.036,-0.496 0.036,-0.355C0.036,-0.288 0.078,-0.239 0.176,-0.214L0.281,-0.187C0.314,-0.178 0.33,-0.166 0.33,-0.144C0.33,-0.089 0.21,-0.096 0.094,-0.118C0.061,-0.124 0.042,-0.109 0.042,-0.077L0.042,-0.063C0.042,-0.036 0.055,-0.019 0.081,-0.012Z" style="fill:rgb(43,55,116);fill-rule:nonzero;"/>
            </g>
            <g transform="matrix(98.3253,0,0,98.3253,576.642,262.553)">
                <path d="M0.267,-0.501C0.223,-0.501 0.17,-0.495 0.115,-0.483C0.083,-0.477 0.067,-0.459 0.067,-0.431L0.067,-0.413C0.067,-0.381 0.086,-0.366 0.118,-0.372C0.164,-0.382 0.211,-0.388 0.247,-0.388C0.32,-0.388 0.363,-0.364 0.363,-0.309L0.363,-0.301L0.234,-0.301C0.112,-0.301 0.037,-0.268 0.037,-0.15C0.037,-0.033 0.112,0 0.234,0L0.347,0C0.455,0 0.502,-0.04 0.502,-0.144L0.502,-0.309C0.502,-0.443 0.402,-0.501 0.267,-0.501ZM0.313,-0.1L0.24,-0.1C0.18,-0.1 0.168,-0.114 0.168,-0.15C0.168,-0.187 0.18,-0.201 0.241,-0.201L0.363,-0.201L0.363,-0.151C0.363,-0.117 0.356,-0.1 0.313,-0.1Z" style="fill:rgb(43,55,116);fill-rule:nonzero;"/>
            </g>
            <g transform="matrix(98.3253,0,0,98.3253,631.082,262.553)">
                <path d="M0.064,-0.654L0.064,-0.046C0.064,-0.017 0.081,0 0.11,0L0.16,0C0.189,0 0.206,-0.017 0.206,-0.046L0.206,-0.654C0.206,-0.684 0.189,-0.7 0.16,-0.7L0.11,-0.7C0.081,-0.7 0.064,-0.684 0.064,-0.654Z" style="fill:rgb(43,55,116);fill-rule:nonzero;"/>
            </g>
            <g transform="matrix(98.3253,0,0,98.3253,657.55,262.553)">
                <path d="M0.434,-0.453L0.349,-0.166C0.336,-0.124 0.325,-0.118 0.309,-0.118C0.293,-0.118 0.282,-0.124 0.269,-0.166L0.184,-0.453C0.176,-0.479 0.159,-0.492 0.132,-0.492L0.082,-0.492C0.048,-0.492 0.033,-0.471 0.044,-0.439L0.143,-0.136C0.179,-0.025 0.216,0.009 0.309,0.009C0.402,0.009 0.438,-0.025 0.474,-0.136L0.574,-0.439C0.585,-0.471 0.57,-0.492 0.536,-0.492L0.486,-0.492C0.459,-0.492 0.442,-0.479 0.434,-0.453Z" style="fill:white;fill-rule:nonzero;"/>
            </g>
            <g transform="matrix(98.3253,0,0,98.3253,715.973,262.553)">
                <path d="M0.295,0.009C0.458,0.009 0.548,-0.084 0.548,-0.246C0.548,-0.408 0.458,-0.501 0.295,-0.501C0.131,-0.501 0.042,-0.408 0.042,-0.246C0.042,-0.084 0.131,0.009 0.295,0.009ZM0.295,-0.108C0.22,-0.108 0.183,-0.15 0.183,-0.246C0.183,-0.343 0.22,-0.384 0.295,-0.384C0.37,-0.384 0.407,-0.343 0.407,-0.246C0.407,-0.15 0.37,-0.108 0.295,-0.108Z" style="fill:white;fill-rule:nonzero;"/>
            </g>
            <g transform="matrix(98.3253,0,0,98.3253,773.855,262.553)">
                <path d="M0.295,0.009C0.458,0.009 0.548,-0.084 0.548,-0.246C0.548,-0.408 0.458,-0.501 0.295,-0.501C0.131,-0.501 0.042,-0.408 0.042,-0.246C0.042,-0.084 0.131,0.009 0.295,0.009ZM0.295,-0.108C0.22,-0.108 0.183,-0.15 0.183,-0.246C0.183,-0.343 0.22,-0.384 0.295,-0.384C0.37,-0.384 0.407,-0.343 0.407,-0.246C0.407,-0.15 0.37,-0.108 0.295,-0.108Z" style="fill:white;fill-rule:nonzero;"/>
            </g>
        </g>
    </g>
</svg>
