<?xml version="1.0" encoding="UTF-8" standalone="no"?>
<!DOCTYPE svg PUBLIC "-//W3C//DTD SVG 1.1//EN" "http://www.w3.org/Graphics/SVG/1.1/DTD/svg11.dtd">
<svg width="100%" height="100%" viewBox="0 0 129 129" version="1.1" xmlns="http://www.w3.org/2000/svg" xmlns:xlink="http://www.w3.org/1999/xlink" xml:space="preserve" xmlns:serif="http://www.serif.com/" style="fill-rule:evenodd;clip-rule:evenodd;stroke-linejoin:round;stroke-miterlimit:2;">
    <g transform="matrix(4.16667,0,0,4.16667,114.271,-0.19125)">
        <path d="M0,30.961L-23.817,30.961C-25.79,30.961 -27.389,29.361 -27.389,27.387L-27.389,3.572C-27.389,1.599 -25.79,0 -23.817,0L0,0C1.973,0 3.572,1.599 3.572,3.572L3.572,27.387C3.572,29.361 1.973,30.961 0,30.961M-11.909,9.526C-15.197,9.526 -17.863,12.191 -17.863,15.48C-17.863,18.768 -15.197,21.435 -11.909,21.435C-8.62,21.435 -5.954,18.768 -5.954,15.48C-5.954,12.191 -8.62,9.526 -11.909,9.526M0,4.762C0,4.105 -0.533,3.572 -1.192,3.572L-4.764,3.572C-5.421,3.572 -5.954,4.105 -5.954,4.762L-5.954,8.335C-5.954,8.993 -5.421,9.526 -4.764,9.526L-1.192,9.526C-0.533,9.526 0,8.993 0,8.335L0,4.762ZM0,13.098L-2.695,13.098C-2.499,13.86 -2.382,14.656 -2.382,15.48C-2.382,20.742 -6.647,25.007 -11.909,25.007C-17.169,25.007 -21.435,20.742 -21.435,15.48C-21.435,14.656 -21.318,13.86 -21.122,13.098L-23.817,13.098L-23.817,26.197C-23.817,26.854 -23.284,27.387 -22.625,27.387L-1.192,27.387C-0.533,27.387 0,26.854 0,26.197L0,13.098Z" style="fill:rgb(43,55,116);"/>
    </g>
</svg>
