<?xml version="1.0" encoding="utf-8"?>
<!-- Generator: Adobe Illustrator 16.0.0, SVG Export Plug-In . SVG Version: 6.00 Build 0)  -->
<!DOCTYPE svg PUBLIC "-//W3C//DTD SVG 1.1//EN" "http://www.w3.org/Graphics/SVG/1.1/DTD/svg11.dtd">
<svg version="1.1" id="Layer_1" xmlns="http://www.w3.org/2000/svg" xmlns:xlink="http://www.w3.org/1999/xlink" x="0px" y="0px"
	 width="1181.811px" height="305.081px" viewBox="0 0 1181.811 305.081" enable-background="new 0 0 1181.811 305.081"
	 xml:space="preserve">
<rect y="0.19" fill="#EE7551" width="1181.813" height="304.891"/>
<g>
	<defs>
		<rect id="SVGID_1_" width="1181.813" height="305.081"/>
	</defs>
	<clipPath id="SVGID_2_">
		<use xlink:href="#SVGID_1_"  overflow="visible"/>
	</clipPath>
	<path clip-path="url(#SVGID_2_)" fill="#F05632" d="M617.883-0.257c30.48,4.123,61.232,8.311,90.152,18.786
		c28.919,10.475,56.254,27.875,73.217,53.533c21.346,32.288,24.529,74.496,48.096,105.201
		c27.615,35.978,76.24,47.656,121.294,52.859s92.689,6.998,131.232,30.902c30.461,18.891,55.809,51.538,91.626,52.891
		c4.556,0.172,10.808-2.4,9.439-6.75l-0.222-304.973L617.883-0.257z"/>
	<path clip-path="url(#SVGID_2_)" fill="#F05632" d="M382.095,217.759c1.687-1.02,3.351-2.085,4.988-3.204
		c3.385-2.313,6.73-4.953,8.616-8.592c3.18-6.134,1.434-13.892-2.542-19.542c-13.628-19.363-25.971-25.438-4.28-49.298
		c9.406-10.347,21.29-18.773,27.967-31.061c17.561-32.318-8.375-61.747-38.858-70.012c-46.978-12.738-91.638,4.065-138.32,3.925
		c-22.717-0.069-47.567-12.57-70.467-15.649c-24.266-3.263-49.25-2.945-72.711,4.696c-13.116,4.272-25.96,11.132-34,22.341
		c-8.256,11.51-10.71,26.524-19.555,37.589c-6.187,7.739-14.833,12.594-23.982,16.014c-7.299,2.729-22.483,2.928-26.252,9.059
		c-4.242,6.902,0.013,30.143,0.019,38.529c0.01,13.171,0.019,26.343,0.028,39.515c0.005,6.564-0.005,111.407,0.081,111.407
		c67.129,0.291,134.258,0.582,201.387,0.874c23.495,0,48.81-2.631,71.884,2.026c0.453-16.927,1.666-35.683,13.78-47.514
		c5.849-5.711,13.581-9.039,21.271-11.815C328.2,237.281,357.629,232.53,382.095,217.759"/>
</g>
<text transform="matrix(1 0 0 1 92.3433 106.2358)"><tspan x="0" y="0" fill="#FFFFFF" font-family="'Manrope-Bold'" font-size="44">In</tspan><tspan x="39.863" y="0" fill="#FFFFFF" font-family="'Manrope-Bold'" font-size="44">f</tspan><tspan x="55.659" y="0" fill="#FFFFFF" font-family="'Manrope-Bold'" font-size="44">orma</tspan><tspan x="165.305" y="0" fill="#FFFFFF" font-family="'Manrope-Bold'" font-size="44">ç</tspan><tspan x="190.01" y="0" fill="#FFFFFF" font-family="'Manrope-Bold'" font-size="44">ões </tspan></text>
<text transform="matrix(1 0 0 1 92.3433 152.2158)"><tspan x="0" y="0" fill="#FFFFFF" font-family="'Manrope-Bold'" font-size="44">aé</tspan><tspan x="51.831" y="0" fill="#FFFFFF" font-family="'Manrope-Bold'" font-size="44">re</tspan><tspan x="95.082" y="0" fill="#FFFFFF" font-family="'Manrope-Bold'" font-size="44">as sob</tspan><tspan x="231.172" y="0" fill="#FFFFFF" font-family="'Manrope-Bold'" font-size="44">r</tspan><tspan x="248.332" y="0" fill="#FFFFFF" font-family="'Manrope-Bold'" font-size="44">e</tspan></text>
<text transform="matrix(1 0 0 1 92.3433 198.1963)" fill="#2B3874" font-family="'Manrope-Bold'" font-size="44">o</text>
<text transform="matrix(1 0 0 1 119.5352 198.1963)" fill="#FFFFFF" font-family="'Manrope-Bold'" font-size="44"> </text>
<text transform="matrix(1 0 0 1 128.335 198.1963)"><tspan x="0" y="0" fill="#2B3874" font-family="'Manrope-Bold'" font-size="44">C</tspan><tspan x="32.494" y="0" fill="#2B3874" font-family="'Manrope-Bold'" font-size="44" letter-spacing="-1">O</tspan><tspan x="64.152" y="0" fill="#2B3874" font-family="'Manrope-Bold'" font-size="44">VID 19</tspan></text>
<g>
	<defs>
		<rect id="SVGID_3_" width="1181.813" height="305.081"/>
	</defs>
	<clipPath id="SVGID_4_">
		<use xlink:href="#SVGID_3_"  overflow="visible"/>
	</clipPath>
	<path clip-path="url(#SVGID_4_)" fill="#2B3874" d="M183.737,255.563h-82.325c-4.988,0-9.07-4.081-9.07-9.069v-21.361
		c0-4.988,4.082-9.069,9.07-9.069h82.325c4.988,0,9.069,4.081,9.069,9.069v21.361C192.806,251.482,188.725,255.563,183.737,255.563"
		/>
</g>
<text transform="matrix(1 0 0 1 108.6436 240.9668)"><tspan x="0" y="0" fill="#FFFFFF" font-family="'Manrope-SemiBold'" font-size="17.0338" letter-spacing="-1">V</tspan><tspan x="9.701" y="0" fill="#FFFFFF" font-family="'Manrope-SemiBold'" font-size="17.0338">eriﬁ</tspan><tspan x="42.022" y="0" fill="#FFFFFF" font-family="'Manrope-SemiBold'" font-size="17.0338">c</tspan><tspan x="51.603" y="0" fill="#FFFFFF" font-family="'Manrope-SemiBold'" font-size="17.0338">ar</tspan></text>
<g>
	<defs>
		<rect id="SVGID_5_" width="1181.813" height="305.081"/>
	</defs>
	<clipPath id="SVGID_6_">
		<use xlink:href="#SVGID_5_"  overflow="visible"/>
	</clipPath>
	<path clip-path="url(#SVGID_6_)" fill="#2B3874" d="M1075.647,107.17c1.171,15.157-9.491,28.613-23.808,30.049
		c-10.961,1.099-20.877-5.169-25.456-14.958l-12.992,1.145l-9.81,4.732c-2.244,1.079-3.753,3.223-4.097,5.686
		c-0.927,6.638-2.609,13.032-4.944,19.108c-0.794,2.058-0.655,4.354,0.424,6.274l3.494,6.248l9.717,6.52
		c5.123-1.959,11.086-1.489,15.991,1.8c8.313,5.58,10.305,17.063,4.123,25.146c-5.321,6.963-15.217,8.876-22.749,4.4
		c-4.798-2.845-7.697-7.571-8.405-12.621l-10.769-7.221l-6.778-0.828c-2.329-0.284-4.646,0.517-6.341,2.138
		c-5.719,5.447-12.178,10.127-19.201,13.873c-2.362,1.259-3.879,3.675-4.045,6.342l-0.859,13.727l4.263,16.911
		c7.254,2.025,13.251,7.776,15.224,15.6c2.978,11.828-4.369,23.828-16.349,26.495c-10.809,2.41-21.896-3.892-25.33-14.422
		c-2.674-8.221-0.219-16.719,5.434-22.272l-4.282-17.01l-6.612-10.63c-1.773-2.853-4.911-4.541-8.273-4.534h-0.053
		c-5.791,0-11.457-0.576-16.938-1.654c-3.263-0.648-6.632,0.384-8.922,2.8l-8.736,9.22l-9.783,20.293
		c2.29,4.653,2.495,10.272,0.073,15.31c-4.355,9.027-15.462,12.615-24.338,7.624c-7.598-4.281-10.888-13.733-7.578-21.809
		c2.257-5.506,6.936-9.187,12.231-10.417l9.842-20.426l1.934-13.707c0.351-2.529-0.616-5.077-2.602-6.679
		c-7.83-6.354-14.542-14.025-19.79-22.683c-1.305-2.151-3.647-3.455-6.162-3.475l-13.688-0.133l-14.985,4.713
		c-1.052,9.318-7.433,17.599-16.95,20.591c-12.788,4.023-26.409-3.005-30.559-15.713c-4.15-12.701,2.858-26.594,15.547-30.79
		c8.883-2.939,18.215-0.497,24.529,5.507l15.905-5.004l11.615-8.281c1.728-1.224,2.647-3.276,2.476-5.38
		c-0.191-2.337-0.291-4.693-0.291-7.076c0-12.946,2.846-25.237,7.93-36.291c0.741-1.621,0.721-3.488-0.06-5.09l-3.442-7.035
		l-9.339-7.05c-5.229,1.675-11.152,0.875-15.865-2.68c-7.995-6.036-9.346-17.612-2.727-25.337c5.698-6.651,15.687-8.015,22.96-3.13
		c4.633,3.111,7.268,7.982,7.691,13.065l10.352,7.811l10.431,1.859c7.592-7.049,16.441-12.761,26.164-16.765l2.449-14.879
		l-3.091-15.369c-9.147-2.356-16.573-9.366-18.572-18.711c-2.819-13.204,6.255-26.065,20.273-28.719
		c14.012-2.654,27.659,5.891,30.479,19.095c2.112,9.882-2.435,19.565-10.735,24.927l2.919,14.495l7.169,11.437
		c0.47,0.748,1.29,1.198,2.171,1.198h0.013c16.415,0,31.783,4.567,44.908,12.496c0.722,0.43,1.608,0.49,2.37,0.132l11.225-5.202
		l13.105-14.177c-0.787-5.084,0.662-10.471,4.428-14.542c6.805-7.353,18.453-7.539,25.482-0.185c6.162,6.453,6.4,16.745,0.55,23.483
		c-3.786,4.362-9.22,6.374-14.528,5.977l-13.105,14.178l-4.256,11.45c-0.299,0.794-0.165,1.681,0.331,2.369
		c5.169,7.096,9.293,14.998,12.139,23.484c0.788,2.33,2.641,4.143,5.011,4.812l10.656,2.985l13.847-1.225
		c3.396-9.789,11.874-17.195,22.285-18.241C1061.927,80.888,1074.482,92.014,1075.647,107.17"/>
	<path clip-path="url(#SVGID_6_)" fill="#515992" d="M913.163,57.152c35.647,0,64.546,28.898,64.546,64.546
		c0,35.648-28.898,64.546-64.546,64.546s-64.546-28.897-64.546-64.546C848.617,86.05,877.516,57.152,913.163,57.152"/>
	<path clip-path="url(#SVGID_6_)" fill="#92A3BD" d="M868.291,121.698c0-32.304,23.729-59.064,54.709-63.801
		c-3.207-0.491-6.492-0.745-9.837-0.745c-35.648,0-64.546,28.898-64.546,64.546c0,35.649,28.897,64.546,64.546,64.546
		c3.345,0,6.63-0.254,9.837-0.744C892.02,180.763,868.291,154.002,868.291,121.698"/>
	<path clip-path="url(#SVGID_6_)" fill="#515992" d="M1096.992,160.772c10.152,0,18.382,8.229,18.382,18.381
		s-8.229,18.381-18.382,18.381c-10.151,0-18.381-8.229-18.381-18.381S1086.841,160.772,1096.992,160.772"/>
	<path clip-path="url(#SVGID_6_)" fill="#515992" d="M799.536,216.121c6.705,0,12.141,5.437,12.141,12.142
		s-5.436,12.141-12.141,12.141s-12.142-5.436-12.142-12.141S792.831,216.121,799.536,216.121"/>
	<path clip-path="url(#SVGID_6_)" fill="#515992" d="M1022.449,230.324c9.876,0,17.882,8.006,17.882,17.882
		c0,9.877-8.006,17.883-17.882,17.883c-9.877,0-17.883-8.006-17.883-17.883C1004.566,238.33,1012.572,230.324,1022.449,230.324"/>
	<path clip-path="url(#SVGID_6_)" fill="#2B3874" d="M893.351,87.226c9.208,0,16.672,7.464,16.672,16.672
		c0,9.207-7.464,16.672-16.672,16.672s-16.672-7.465-16.672-16.672C876.679,94.69,884.143,87.226,893.351,87.226"/>
	<path clip-path="url(#SVGID_6_)" fill="#2B3874" d="M906.733,144.334c6.268,0,11.349,5.081,11.349,11.348
		c0,6.267-5.081,11.348-11.349,11.348c-6.267,0-11.348-5.081-11.348-11.348C895.386,149.416,900.467,144.334,906.733,144.334"/>
	<path clip-path="url(#SVGID_6_)" fill="#2B3874" d="M942.366,112.169c5.263,0,9.529,4.266,9.529,9.529
		c0,5.263-4.267,9.529-9.529,9.529s-9.528-4.266-9.528-9.529C932.838,116.436,937.104,112.169,942.366,112.169"/>
	<path clip-path="url(#SVGID_6_)" fill="#2B3874" d="M527.759,195.955l-6.53-6.531l6.53-6.531c1.804-1.803,4.728-1.803,6.53,0
		c1.804,1.804,1.804,4.729,0,6.531L527.759,195.955z"/>
	<path clip-path="url(#SVGID_6_)" fill="#2B3874" d="M491.839,160.035l-6.53-6.53l6.53-6.532c1.804-1.803,4.728-1.803,6.53,0
		c1.805,1.804,1.805,4.728,0,6.532L491.839,160.035z"/>
	<path clip-path="url(#SVGID_6_)" fill="#515992" d="M483.722,147.536c-3.883-2.065-8.442-1.966-12.2,0.265
		c-0.645,0.382-1.063,1.052-1.123,1.798c-0.056,0.678,0.191,1.343,0.668,1.819c0.048,0.048,0.097,0.094,0.151,0.139l29.011,24.274
		l12.1-13.096L483.722,147.536z"/>
	<path clip-path="url(#SVGID_6_)" fill="#515992" d="M533.728,197.542l-14.92-28.083l-12.718,12.362l23.617,28.224
		c0.043,0.055,0.09,0.104,0.137,0.151c0.478,0.477,1.143,0.725,1.821,0.668c0.745-0.061,1.415-0.478,1.797-1.123
		C535.693,205.983,535.792,201.424,533.728,197.542"/>
	<path clip-path="url(#SVGID_6_)" fill="#FFFFFF" d="M542.083,151.462l-50.138,46.255l4.157,9.329
		c0.785,1.755,0.415,3.833-0.924,5.172l-2.217,2.171c-1.062,1.107-2.863,0.831-3.603-0.416l-8.357-13.716l-13.716-8.358
		c-1.293-0.785-1.477-2.54-0.416-3.602l2.171-2.217c1.339-1.34,3.417-1.709,5.172-0.924l9.328,4.156l46.26-50.134
		c1.663-1.894,4.018-2.909,6.373-2.909c2.217,0,4.387,0.831,6.187,2.631C546.147,142.689,545.687,148.276,542.083,151.462"/>
	<path clip-path="url(#SVGID_6_)" fill="#92A3BD" d="M542.083,151.462l-50.138,46.255l4.157,9.329
		c0.785,1.755,0.415,3.833-0.924,5.172l-2.217,2.171c-1.062,1.107-2.863,0.831-3.603-0.416l-8.357-13.716l61.359-61.356
		C546.147,142.689,545.687,148.276,542.083,151.462"/>
	<path clip-path="url(#SVGID_6_)" fill="#2B3874" d="M683.024,163.989l-9.733-9.733l9.733-9.734c2.688-2.688,7.046-2.688,9.734,0
		c2.688,2.689,2.688,7.047,0,9.734L683.024,163.989z"/>
	<path clip-path="url(#SVGID_6_)" fill="#2B3874" d="M629.487,110.453l-9.733-9.733l9.733-9.735c2.688-2.688,7.047-2.688,9.734,0
		c2.688,2.688,2.688,7.047,0,9.735L629.487,110.453z"/>
	<path clip-path="url(#SVGID_6_)" fill="#515992" d="M617.389,91.824c-5.786-3.078-12.583-2.931-18.184,0.395
		c-0.961,0.569-1.583,1.568-1.674,2.679c-0.083,1.01,0.285,2.002,0.996,2.713c0.071,0.07,0.145,0.139,0.226,0.207l43.238,36.178
		l18.036-19.518L617.389,91.824z"/>
	<path clip-path="url(#SVGID_6_)" fill="#515992" d="M691.92,166.354l-22.236-41.857l-18.956,18.428l35.199,42.065
		c0.066,0.081,0.136,0.154,0.206,0.226c0.711,0.71,1.702,1.079,2.713,0.996c1.111-0.09,2.109-0.712,2.68-1.673
		C694.851,178.938,694.997,172.141,691.92,166.354"/>
	<path clip-path="url(#SVGID_6_)" fill="#FFFFFF" d="M704.375,97.676l-74.729,68.941l6.194,13.904
		c1.17,2.615,0.619,5.713-1.377,7.709l-3.304,3.235c-1.583,1.651-4.268,1.238-5.369-0.62l-12.457-20.442l-20.442-12.459
		c-1.928-1.169-2.202-3.784-0.62-5.368l3.235-3.303c1.996-1.996,5.094-2.548,7.709-1.377l13.903,6.194l68.948-74.723
		c2.478-2.822,5.988-4.336,9.497-4.336c3.305,0,6.539,1.239,9.224,3.923C710.433,84.599,709.745,92.927,704.375,97.676"/>
	<path clip-path="url(#SVGID_6_)" fill="#92A3BD" d="M704.375,97.676l-74.729,68.941l6.194,13.904
		c1.17,2.615,0.619,5.713-1.377,7.709l-3.304,3.235c-1.583,1.651-4.268,1.238-5.369-0.62l-12.457-20.442l91.454-91.449
		C710.433,84.599,709.745,92.927,704.375,97.676"/>
</g>
</svg>
