<?xml version="1.0" encoding="utf-8"?>
<!-- Generator: Adobe Illustrator 16.0.0, SVG Export Plug-In . SVG Version: 6.00 Build 0)  -->
<!DOCTYPE svg PUBLIC "-//W3C//DTD SVG 1.1//EN" "http://www.w3.org/Graphics/SVG/1.1/DTD/svg11.dtd">
<svg version="1.1" id="Layer_1" xmlns="http://www.w3.org/2000/svg" xmlns:xlink="http://www.w3.org/1999/xlink" x="0px" y="0px"
	 width="1191px" height="304.205px" viewBox="0 0 1191 304.205" enable-background="new 0 0 1191 304.205" xml:space="preserve">
<rect y="0.001" fill="#EE7551" width="1191" height="304.204"/>
<g>
	<defs>
		<rect id="SVGID_1_" width="1191" height="304.205"/>
	</defs>
	<clipPath id="SVGID_2_">
		<use xlink:href="#SVGID_1_"  overflow="visible"/>
	</clipPath>
	<path clip-path="url(#SVGID_2_)" fill="#515992" d="M364.895,226.883c-1.814-6.895-2.481-14.143-5.032-20.812
		c-8.791-22.977-36.486-32.534-50.643-52.651c-12.853-18.267-12.752-42.271-18.068-63.963
		c-5.685-23.193-18.778-45.323-39.091-57.878c-19.53-12.073-43.749-14.262-66.58-11.83c-16.524,1.76-31.727,5.221-45.75,13.582
		c-14.676,8.75-29.219,4.338-45.501,7.509c-18.738,3.649-33.027,19.854-39.804,37.701c-2.793,7.357-4.797,15.478-10.539,20.859
		c-13.669,12.809-45.998,0.609-47.732,24.055c-0.729,9.849,2.583,20.708,3.025,30.616c0.607,13.594,0.051,27.338,0.061,40.947
		c0.005,6.572-0.006,111.406,0.081,111.407l201.386,0.873c76.833,0.333,153.781,1.658,230.782,1.658
		c0.364-17.211-14.842-31.139-28.84-41.159c-13.997-10.021-29.878-19.74-36.114-35.785
		C365.883,230.335,365.353,228.619,364.895,226.883"/>
	<path clip-path="url(#SVGID_2_)" fill="#FFFFFF" d="M1157.563,169.118c-1.226-20.996-11.061-39.431-25.856-52.118
		c0.58-3.745,0.885-7.581,0.885-11.489c0-27.341-7.351-56.305-41.101-59.805c-2.5-23.5-32.446-41.083-59.787-41.083
		c-23.396,0-44.256,10.813-57.889,27.703c-5.145-1.35-10.54-2.075-16.108-2.075c-34.95,0-63.282,28.332-63.282,63.283
		c0,6.929,1.131,13.592,3.189,19.833c-21.72,10.024-36.801,31.981-36.801,57.473c0,26.537,16.341,49.245,39.504,58.646
		c5.783,28.987,31.361,50.836,62.052,50.836c13.597,0,26.183-4.305,36.499-11.603c11.214,10.105,26.057,16.259,42.341,16.259
		c26.338,0,48.912-16.093,58.441-38.979C1134.58,238.181,1159.715,206.014,1157.563,169.118"/>
</g>
<text transform="matrix(1 0 0 1 362.1504 108.4028)"><tspan x="0" y="0" fill="#FFFFFF" font-family="'Manrope-Bold'" font-size="37.7291">Reivi</tspan><tspan x="89.642" y="0" fill="#FFFFFF" font-family="'Manrope-Bold'" font-size="37.7291">n</tspan><tspan x="112.939" y="0" fill="#FFFFFF" font-family="'Manrope-Bold'" font-size="37.7291">dique seus di</tspan><tspan x="352.515" y="0" fill="#FFFFFF" font-family="'Manrope-Bold'" font-size="37.7291">r</tspan><tspan x="367.229" y="0" fill="#FFFFFF" font-family="'Manrope-Bold'" font-size="37.7291">ei</tspan><tspan x="400.524" y="0" fill="#FFFFFF" font-family="'Manrope-Bold'" font-size="37.7291" letter-spacing="-1">t</tspan><tspan x="415.843" y="0" fill="#FFFFFF" font-family="'Manrope-Bold'" font-size="37.7291">o</tspan><tspan x="438.706" y="0" fill="#FFFFFF" font-family="'Manrope-Bold'" font-size="37.7291">s </tspan></text>
<text transform="matrix(1 0 0 1 443.4565 147.8296)"><tspan x="0" y="0" fill="#FFFFFF" font-family="'Manrope-Bold'" font-size="37.7291">de </tspan><tspan x="53.537" y="0" fill="#FFFFFF" font-family="'Manrope-Bold'" font-size="37.7291">f</tspan><tspan x="67.081" y="0" fill="#FFFFFF" font-family="'Manrope-Bold'" font-size="37.7291">orma </tspan></text>
<text transform="matrix(1 0 0 1 612.0684 147.8296)" fill="#2B3874" font-family="'Manrope-Bold'" font-size="37.7291">digital, </text>
<text transform="matrix(1 0 0 1 435.0054 187.2568)"><tspan x="0" y="0" fill="#2B3874" font-family="'Manrope-Bold'" font-size="37.7291">r</tspan><tspan x="14.601" y="0" fill="#2B3874" font-family="'Manrope-Bold'" font-size="37.7291">ápida e </tspan><tspan x="152.97" y="0" fill="#2B3874" font-family="'Manrope-Bold'" font-size="37.7291">c</tspan><tspan x="174.154" y="0" fill="#2B3874" font-family="'Manrope-Bold'" font-size="37.7291">onﬁ</tspan><tspan x="246.479" y="0" fill="#2B3874" font-family="'Manrope-Bold'" font-size="37.7291">á</tspan><tspan x="267.494" y="0" fill="#2B3874" font-family="'Manrope-Bold'" font-size="37.7291">v</tspan><tspan x="287.604" y="0" fill="#2B3874" font-family="'Manrope-Bold'" font-size="37.7291">el</tspan></text>
<g>
	<defs>
		<rect id="SVGID_3_" width="1191" height="304.205"/>
	</defs>
	<clipPath id="SVGID_4_">
		<use xlink:href="#SVGID_3_"  overflow="visible"/>
	</clipPath>
	<path clip-path="url(#SVGID_4_)" fill="#2B3874" d="M633.996,248.02h-82.325c-4.988,0-9.07-4.081-9.07-9.068v-21.362
		c0-4.988,4.082-9.069,9.07-9.069h82.325c4.987,0,9.068,4.081,9.068,9.069v21.362C643.064,243.938,638.983,248.02,633.996,248.02"/>
</g>
<text transform="matrix(1 0 0 1 558.9023 233.4229)"><tspan x="0" y="0" fill="#FFFFFF" font-family="'Manrope-SemiBold'" font-size="17.0338" letter-spacing="-1">V</tspan><tspan x="9.701" y="0" fill="#FFFFFF" font-family="'Manrope-SemiBold'" font-size="17.0338">eriﬁ</tspan><tspan x="42.022" y="0" fill="#FFFFFF" font-family="'Manrope-SemiBold'" font-size="17.0338">c</tspan><tspan x="51.604" y="0" fill="#FFFFFF" font-family="'Manrope-SemiBold'" font-size="17.0338">ar</tspan></text>
<g>
	<defs>
		<rect id="SVGID_5_" width="1191" height="304.205"/>
	</defs>
	<clipPath id="SVGID_6_">
		<use xlink:href="#SVGID_5_"  overflow="visible"/>
	</clipPath>
	<path clip-path="url(#SVGID_6_)" fill="#FFFFFF" d="M1102.739,171.882h-0.007c-0.022-0.081-0.077-0.265-0.162-0.523
		C1102.662,171.612,1102.72,171.793,1102.739,171.882"/>
	<path clip-path="url(#SVGID_6_)" fill="#92A3BD" d="M1029.04,231.593c-1.354,0-2.451-1.099-2.451-2.452v-5.485
		c0-1.354,1.097-2.452,2.451-2.452c1.354,0,2.452,1.098,2.452,2.452v5.485C1031.492,230.494,1030.394,231.593,1029.04,231.593"/>
	<path clip-path="url(#SVGID_6_)" fill="#92A3BD" d="M1068.7,231.593c-1.354,0-2.451-1.099-2.451-2.452v-5.485
		c0-1.354,1.097-2.452,2.451-2.452c1.354,0,2.452,1.098,2.452,2.452v5.485C1071.152,230.494,1070.054,231.593,1068.7,231.593"/>
	<path clip-path="url(#SVGID_6_)" fill="#2B3874" d="M952.879,230.938c-1.354,0-2.451-1.098-2.451-2.452v-5.484
		c0-1.355,1.097-2.452,2.451-2.452c1.354,0,2.451,1.097,2.451,2.452v5.484C955.33,229.841,954.232,230.938,952.879,230.938"/>
	<path clip-path="url(#SVGID_6_)" fill="#2B3874" d="M1018.778,230.938c-1.354,0-2.452-1.098-2.452-2.452v-5.484
		c0-1.355,1.098-2.452,2.452-2.452c1.354,0,2.45,1.097,2.45,2.452v5.484C1021.229,229.841,1020.132,230.938,1018.778,230.938"/>
	<path clip-path="url(#SVGID_6_)" fill="#768397" d="M979.986,159.202c-1.354,0-2.451-1.521-2.451-3.398v-7.458
		c0-1.878,1.097-3.399,2.451-3.399c1.354,0,2.451,1.521,2.451,3.399v7.458C982.438,157.682,981.34,159.202,979.986,159.202"/>
	<path clip-path="url(#SVGID_6_)" fill="#768397" d="M1001.145,159.202c-1.354,0-2.452-1.521-2.452-3.398v-7.458
		c0-1.878,1.098-3.399,2.452-3.399c1.354,0,2.451,1.521,2.451,3.399v7.458C1003.596,157.682,1002.498,159.202,1001.145,159.202"/>
	<path clip-path="url(#SVGID_6_)" fill="#92A3BD" d="M1031.864,129.984c-1.354,0-2.451-1.098-2.451-2.452V89.952
		c0-3.37,2.742-6.112,6.112-6.112h2.991c1.355,0,2.452,1.098,2.452,2.452s-1.097,2.451-2.452,2.451h-2.991
		c-0.668,0-1.209,0.543-1.209,1.209v37.582C1034.316,128.887,1033.218,129.984,1031.864,129.984"/>
	<path clip-path="url(#SVGID_6_)" fill="#92A3BD" d="M1064.194,130.381c-1.354,0-2.452-1.098-2.452-2.452V89.952
		c0-0.666-0.542-1.209-1.209-1.209h-2.585c-1.354,0-2.451-1.097-2.451-2.451s1.097-2.452,2.451-2.452h2.585
		c3.37,0,6.111,2.742,6.111,6.112v37.978C1066.645,129.284,1065.548,130.381,1064.194,130.381"/>
	<path clip-path="url(#SVGID_6_)" fill="#515992" d="M1025.505,222.675h-53.204l-5.443-3.27l-5.44,3.27h-14.053
		c-2.113,0-3.829-1.714-3.829-3.829v-58.67c0-2.115,1.716-3.829,3.829-3.829h14.053l5.44,3.269l5.443-3.269h53.204V222.675z"/>
	<rect x="1004.247" y="156.347" clip-path="url(#SVGID_6_)" fill="#2B3874" width="21.258" height="66.328"/>
	<rect x="961.417" y="156.347" clip-path="url(#SVGID_6_)" fill="#2B3874" width="10.884" height="66.328"/>
	<path clip-path="url(#SVGID_6_)" fill="#EE7551" d="M1072.758,223.189h-50.007c-4.351,0-7.876-3.526-7.876-7.876V135.57
		c0-4.35,3.525-7.876,7.876-7.876h50.007c4.35,0,7.876,3.526,7.876,7.876v79.743
		C1080.634,219.663,1077.107,223.189,1072.758,223.189"/>
	<path clip-path="url(#SVGID_6_)" fill="#F05632" d="M1072.758,127.694h-9.808c4.351,0,7.876,3.526,7.876,7.876v79.743
		c0,4.349-3.525,7.876-7.876,7.876h9.808c4.35,0,7.876-3.527,7.876-7.876V135.57
		C1080.634,131.221,1077.107,127.694,1072.758,127.694"/>
	<path clip-path="url(#SVGID_6_)" fill="#EE7551" d="M1004.252,149.555h-27.233c-1.276,0-2.31-1.035-2.31-2.31v-4.597
		c0-1.276,1.033-2.31,2.31-2.31h27.233c1.274,0,2.31,1.034,2.31,2.31v4.597C1006.562,148.52,1005.526,149.555,1004.252,149.555"/>
	<path clip-path="url(#SVGID_6_)" fill="#F79E7F" d="M1031.314,212.586c-1.354,0-2.451-1.098-2.451-2.452v-69.143
		c0-1.354,1.097-2.452,2.451-2.452c1.354,0,2.451,1.098,2.451,2.452v69.143C1033.766,211.488,1032.668,212.586,1031.314,212.586"/>
	<path clip-path="url(#SVGID_6_)" fill="#F79E7F" d="M1047.755,212.586c-1.354,0-2.452-1.098-2.452-2.452v-31.729
		c0-1.354,1.098-2.451,2.452-2.451c1.354,0,2.45,1.098,2.45,2.451v31.729C1050.205,211.488,1049.108,212.586,1047.755,212.586"/>
	<path clip-path="url(#SVGID_6_)" fill="#F79E7F" d="M1047.755,171.051c-1.354,0-2.452-1.099-2.452-2.452V140.99
		c0-1.354,1.098-2.451,2.452-2.451c1.354,0,2.45,1.097,2.45,2.451v27.608C1050.205,169.953,1049.108,171.051,1047.755,171.051"/>
	<path clip-path="url(#SVGID_6_)" fill="#F79E7F" d="M1064.194,212.586c-1.354,0-2.452-1.098-2.452-2.452v-69.143
		c0-1.354,1.098-2.452,2.452-2.452c1.354,0,2.45,1.098,2.45,2.452v69.143C1066.645,211.488,1065.548,212.586,1064.194,212.586"/>
	<path clip-path="url(#SVGID_6_)" fill="#515992" d="M1053.567,79.093h-11.076c-2.69,0-4.871,2.181-4.871,4.871v4.318
		c0,2.69,2.18,4.871,4.871,4.871h11.076c2.689,0,4.871-2.181,4.871-4.871v-4.318C1058.438,81.274,1056.257,79.093,1053.567,79.093"
		/>
	<path clip-path="url(#SVGID_6_)" fill="#FFFFFF" d="M362.436,55.27c6.492,1.605,12.676-0.816,13.812-5.408
		c1.134-4.592-3.209-9.615-9.703-11.22c-6.492-1.605-12.675,0.816-13.811,5.408C351.598,48.642,355.942,53.666,362.436,55.27"/>
	<path clip-path="url(#SVGID_6_)" fill="#FFFFFF" d="M316.353,56.299c6.683-0.264,11.949-4.309,11.763-9.035
		c-0.187-4.726-5.755-8.344-12.439-8.08c-6.682,0.263-11.949,4.308-11.762,9.034C304.101,52.945,309.669,56.563,316.353,56.299"/>
	<path clip-path="url(#SVGID_6_)" fill="#FFFFFF" d="M271.978,65.953c6.684-0.264,11.95-4.309,11.764-9.035
		c-0.187-4.727-5.756-8.344-12.439-8.081c-6.683,0.264-11.95,4.309-11.763,9.035C259.725,62.599,265.294,66.216,271.978,65.953"/>
	<path clip-path="url(#SVGID_6_)" fill="#FFFFFF" d="M416.516,50.275c-8.008-3.983-16.636-2.917-19.271,2.381
		c-2.634,5.298,1.721,12.822,9.729,16.805c8.008,3.982,16.636,2.916,19.271-2.382C428.878,61.782,424.523,54.259,416.516,50.275"/>
	<path clip-path="url(#SVGID_6_)" fill="#FFFFFF" d="M753.309,223.69c-6.517-1.511-12.663,1.001-13.73,5.608
		c-1.068,4.608,3.348,9.568,9.864,11.078c6.515,1.509,12.663-1.002,13.73-5.61C764.241,230.159,759.824,225.2,753.309,223.69"/>
	<path clip-path="url(#SVGID_6_)" fill="#FFFFFF" d="M804.484,238.162c-6.607-1.037-12.559,1.911-13.291,6.583
		c-0.733,4.673,4.027,9.302,10.636,10.339c6.606,1.037,12.558-1.911,13.292-6.584C815.854,243.828,811.091,239.199,804.484,238.162"
		/>
	<path clip-path="url(#SVGID_6_)" fill="#FFFFFF" d="M851.954,235.477c-6.622,0.94-11.452,5.498-10.787,10.181
		c0.664,4.684,6.571,7.718,13.192,6.778c6.622-0.939,11.451-5.498,10.787-10.181C864.481,237.571,858.575,234.538,851.954,235.477"
		/>
	<path clip-path="url(#SVGID_6_)" fill="#FFFFFF" d="M706.166,222.316c7.745,4.473,16.423,3.943,19.381-1.181
		s-0.922-12.903-8.668-17.376c-7.745-4.471-16.422-3.943-19.381,1.182C694.54,210.065,698.42,217.845,706.166,222.316"/>
	<path clip-path="url(#SVGID_6_)" fill="#2B3874" d="M113.824,161.26c-2.425,3.787-5.582,7.914-8.835,11.023
		c-1.299,1.242-2.869,2.03-3.984,3.536c-1.06,1.43-1.027,3.866-1.952,5.048c5.06-6.459,13.382-9.188,21.056-12.094
		c9.463-3.584,18.641-7.923,27.417-12.961c4.454-2.556,9.067-5.592,11.029-10.337c1.908-4.611,0.909-9.835,0.108-14.759
		c-2.505-15.412-2.748-31.337,0.847-46.531c3.125-13.21,8.664-28.732,22.37-34.014c2.564-0.989,5.556-1.826,6.812-4.27
		c0.543-1.057,0.666-2.275,0.722-3.461c0.287-6.096-0.987-12.257-3.668-17.739c-1.147-2.344-2.625-4.646-4.849-6.011
		c-2.915-1.791-6.568-1.68-9.985-1.512c-8.286,0.407-15.804,6.912-20.927,12.996c-7.201,8.554-11.457,19.31-13.477,30.307
		c-0.733,3.99-1.187,8.028-1.991,12.004c-0.948,4.688-2.377,9.264-3.486,13.917c-1.401,5.871-2.292,11.85-3.181,17.82
		c-0.969,6.511-1.938,13.022-2.908,19.534C123.007,136.755,120.912,150.192,113.824,161.26"/>
	<path clip-path="url(#SVGID_6_)" fill="#2B3874" d="M187.465,23.863c1.785,4.251,4.579,8.379,4.099,12.758
		c-0.3,2.737-1.421,5.316-3.097,7.5c-0.836,1.089-2.712,2.282-2.173,3.544c0.56,1.311,2.577,3.019,3.744,3.85
		c7.773,5.53,17.365,10.645,19.52,19.938c0.643,2.771,0.523,5.667,1.032,8.466c0.722,3.967,2.687,7.64,3.276,11.629
		c0.916,6.178-1.555,12.348-4.543,17.834c-2.987,5.484-6.581,10.751-8.229,16.775c-1.324,4.837-1.324,9.934-1.031,14.94
		c0.415,7.115,1.702,14.806,6.913,19.667c5.793,5.401,14.552,5.657,22.472,5.601c0.323-4.599-1.483-9.042-2.491-13.541
		c-0.982-4.381-1.214-8.929-0.681-13.386c0.901-7.55,3.945-14.677,5.413-22.137c1.327-6.742,1.351-13.663,1.371-20.533
		c0.025-9.03,0.046-18.117-1.537-27.007c-2.418-13.582-8.756-26.386-17.839-36.744c-4.509-5.141-9.742-9.845-15.524-13.522
		c-2.035-1.294-4.214-1.648-6.523-2.081c-1.164-0.218-1.948-0.24-2.72-0.188c-2.398,0.163-3.961,1.684-2.689,3.724
		c0.012,0.02,0.213,1.174,0.226,1.195C186.809,22.707,187.208,23.251,187.465,23.863"/>
	<path clip-path="url(#SVGID_6_)" fill="#FFFFFF" d="M143.036,157.75c3.705,3.084,6.203,7.493,8.857,11.458
		c6.711,10.03,17.951,15.667,30.036,18.269c4.432,0.955,9.11,1.901,13.446,0.598c2.85-0.857,5.307-2.626,7.546-4.529
		c3.449-2.93,6.57-6.302,8.637-10.26c1.442-2.76,2.344-5.747,3.239-8.714c1.208-4.01,2.417-8.021,3.625-12.03
		c0.219-0.729,0.411-1.6-0.101-2.177c-0.499-0.563-1.389-0.534-2.157-0.521c-4.383,0.079-8.749-2.004-11.342-5.411
		c-7.745-10.177,4.444-19.3,6.214-29.328c0.333-1.887,0.434-4.559,1.998-5.759c1.451-1.114,2.953-1.103,3.745-3.089
		c1.271-3.185-1.01-6.907,0.185-10.12c0.335-0.9,0.924-1.693,1.277-2.586c0.354-0.892,0.428-1.99-0.207-2.724
		c-1.042-1.206-3.378-0.534-4.25-1.773c-0.698-0.991-0.129-4.787-0.279-6.098c-0.501-4.347-1.635-8.602-2.899-12.792
		c-2.004-6.644-5.596-13.294-12.109-16.742c-1.8-0.952-3.82-1.668-5.165-3.164c-0.716-0.797-1.213-1.791-2.083-2.431
		c-1.155-0.852-2.727-0.908-4.18-0.856c-15.69,0.562-30.637,10.358-36.946,24.216c-2.318,5.091-3.501,10.563-4.311,16.044
		c-0.298,2.022,0.05,5.724-1.048,7.464c-0.802,1.27-3.021,0.973-3.352,2.697c-0.247,1.285,0.569,2.534,1.496,3.488
		c0.926,0.954,2.027,1.807,2.582,2.999c0.585,1.257,0.475,2.711,0.873,4.035c0.398,1.324,1.733,2.629,3.086,2.186
		c-2.58,0.844,6.463,13.559,6.938,14.755c1.659,4.184,0.819,12.808-0.807,16.972C153.132,148.093,148.626,153.774,143.036,157.75"/>
	<path clip-path="url(#SVGID_6_)" fill="#F05632" d="M125.023,152.783c-10.538,0.69-19.894,0.857-27.788,8.859
		c-8.655,8.773-13.389,22.76-18.626,33.706c-0.773,1.614-1.556,3.437-0.992,5.136c0.58,1.747,2.385,2.745,4.082,3.462
		c8.407,3.549,17.914,4.358,25.81,8.933c2.765,1.601,5.346,3.729,6.768,6.589c1.132,2.276,1.457,4.86,1.655,7.396
		c0.666,8.518-1.058,16.267-1.485,24.658c-0.493,9.703,3.277,18.897,4.556,28.392c0.646,4.788-0.278,8.87-0.506,13.561
		c-0.245,5.023,0.206,10.307,0.153,15.382c-0.015,1.385-0.001,2.865,0.78,4.009c1.196,1.747,3.63,1.993,5.745,2.068
		c35.906,1.279,71.857,1.284,107.763,0.015c3.54-0.125,7.48-0.44,9.868-3.058c2.209-2.419,2.354-6.02,2.377-9.296
		c0.206-28.771,0.413-57.544,0.62-86.315c9.993-4.023,20.464-6.861,31.122-8.436c2.161-0.32,4.762-0.933,5.402-3.021
		c0.441-1.439-0.294-2.942-0.917-4.313c-5.455-11.99-4.232-27.85-14.579-36.001c-3.078-2.425-6.832-3.796-10.516-5.13
		c-6.471-2.341-12.923-4.733-19.452-6.907c-4.702-1.565-11.268-4.624-16.272-4.345c-0.476,0.027-0.961,0.088-1.395,0.286
		c-0.539,0.247-0.964,0.688-1.347,1.141c-3.402,4.034-4.886,9.249-8.234,13.319c-3.235,3.931-5.518,7.647-10.06,10.325
		c-7.074,4.168-15.686,4.946-23.706,4.017c-24.61-2.853-29.884-19.104-33.527-23.005"/>
	<path clip-path="url(#SVGID_6_)" fill="#FFFFFF" d="M244.153,217.305c7.076-3.515,14.405-6.713,22.044-8.775
		c4.999-1.351,8.72-3.745,10.638,2.159c2.084,6.414,0.78,16.014,0.978,22.769c0.871,29.668-0.074,60.117-10.462,88.268
		c-1.551,4.205-4.289,9.035-8.771,9.027c-1.871-0.004-3.612-0.91-5.226-1.856c-5.922-3.472-12.05-8.644-14.374-15.332
		c-1.87-5.377,0.562-10.414,0.938-15.91c0.717-10.504,1.337-21.015,1.983-31.521c0.231-3.731,5.151-47.081,2.49-48.049"/>
	<path clip-path="url(#SVGID_6_)" fill="#FFFFFF" d="M114.447,287.471c3.898-19.931-0.028-40.977,1.312-61.458
		c0.199-3.032,0.434-6.426-1.06-8.779c-0.644-1.015-1.541-1.702-2.444-2.304c-9.257-6.169-19.905-9.334-29.708-13.974
		c0,0-1.234,58.152,0.687,77.362c2.401,22.308,9.602,38.419,9.602,38.419l16.804,1.859l9.183-7.197c0,0-4.054-13.221-3.414-16.25
		c0.641-3.03,0.427-17.902,0.853-19.004c0.427-1.102-0.639-13.771-1.28-16.525c-0.64-2.754-3.414-12.394-3.628-14.873
		c-0.213-2.478,0.854-11.292,1.707-14.597c0.854-3.305,1.494-16.249-4.907-18.178c-0.233-0.069-0.483-0.149-0.748-0.237"/>
	<path clip-path="url(#SVGID_6_)" fill="#2B3874" d="M188.804,279.139h-15.472c-6.6,0-12-5.399-12-12v-43.409c0-6.599,5.4-12,12-12
		h15.472c6.601,0,12,5.401,12,12v43.409C200.804,273.739,195.405,279.139,188.804,279.139"/>
	<path clip-path="url(#SVGID_6_)" fill="#FFFFFF" d="M91.91,309.047c0.858-1.839,1.865-3.608,3.01-5.285
		c3.425-5.019,7.996-9.122,12.074-13.624c15.308-16.899,23.385-39.023,36.212-57.873c2.744-4.032,4.069-5.197,8.488-6.734
		c2.629-0.915,5.258-1.829,7.887-2.743l9.095-1.069l8.559,6.42l-2.675,4.28c0,0-11.769-4.28-12.839-2.142
		c-1.071,2.142-4.815,9.095-1.605,9.095s12.305-3.743,12.305-3.743c6.252-0.569,11.957-0.952,18.263-0.396
		c1.088,0.095,2.21,0.255,3.13,0.843c2.372,1.517,2.318,4.974,1.714,7.724c-0.675,3.081-1.688,6.087-3.016,8.946
		c-0.775,1.666-1.692,3.329-3.119,4.487c-1.04,0.843-2.296,1.374-3.558,1.819c-6.023,2.124-12.489,2.534-18.781,3.631
		c-4.58,0.799-9.499,1.978-13.432,4.572c-3.405,2.245-3.271,4.656-4.358,8.335c-2.851,9.656-6.766,19.102-11.152,28.154
		c-4.161,8.594-9.136,17.143-16.768,22.877c-7.634,5.734-18.502,8.06-26.869,3.459c-2.533-1.393-4.849-3.525-5.584-6.322
		c-0.451-1.718-0.269-3.538,0.04-5.289C89.505,315.215,90.512,312.04,91.91,309.047"/>
	<path clip-path="url(#SVGID_6_)" fill="#FFFFFF" d="M175.138,231.097c0-1.35,3.037-4.724,4.387-4.724
		c1.349,0,11.81,0.675,11.81,0.675c6.146,1.336,12.604,2.466,17.633,6.51c0.541,0.437,1.091,0.925,1.775,1.043
		c0.143,0.024,0.3,0.029,0.42-0.051c0.151-0.099,0.199-0.296,0.21-0.475c0.071-1.108-0.764-2.043-1.543-2.835
		c-2.076-2.113-4.086-3.704-6.473-5.456c-0.509-0.374-1.034-0.768-1.338-1.32c-0.304-0.554-0.319-1.32,0.136-1.758
		c0.253-0.242,0.603-0.348,0.94-0.445c4.769-1.381,8.704,1.176,12.653,3.677c2.001,1.268,4.022,2.551,5.683,4.238
		c2.82,2.866,4.38,6.663,5.633,10.417c0.234,0.701,0.364,1.91,0.815,2.49c0.363,0.467,1.233,0.784,1.689,1.24
		c0.763,0.763,1.386,1.699,1.922,2.633c3.037,2.7,6.074,8.773,6.074,8.773l7.423,13.497l19.234,38.806l2.699,10.123l-1.012,7.423
		l-3.712,7.086l-5.062,2.024h-10.798l-8.097-2.361c-2.978-4.315-6.421-8.115-8.835-12.834c-2.653-5.187-4.467-10.771-5.8-16.429
		c-2.32-9.849-3.268-19.972-5.323-29.881c-0.671-3.23-1.703-5.894-5.144-6.979c-1.073-0.338-2.218-0.364-3.343-0.328
		c-1.931,0.062-3.857,0.297-5.746,0.703c-1.262,0.271-2.517,0.619-3.806,0.672c-1.801,0.074-3.57-0.431-5.298-0.94
		c-1.135-0.333-2.28-0.674-3.303-1.266c-1.212-0.699-2.201-1.718-3.174-2.723c-1.714-1.771-3.516-3.646-4.357-6.016
		c-0.65-1.826-1.473-3.613-2.223-5.414c0,0-1.125-2.698-2.024-3.599c-0.901-0.9-2.026-1.8-2.701-2.925
		c-0.674-1.125-0.449-3.6-0.449-3.6l-2.25-2.924l-4.274-2.024l-0.225-2.475l4.275-2.024"/>
	<path clip-path="url(#SVGID_6_)" fill="#FFFFFF" d="M196.001,220.373c0,1.478-1.197,2.675-2.675,2.675
		c-1.477,0-2.675-1.197-2.675-2.675s1.198-2.676,2.675-2.676C194.805,217.697,196.001,218.896,196.001,220.373"/>
	<polygon clip-path="url(#SVGID_6_)" fill="#6A70B5" points="103.36,135.362 111.232,129.738 106.272,140.654 	"/>
	<polygon clip-path="url(#SVGID_6_)" fill="#6A70B5" points="103.22,154.199 105.996,161.148 100.365,154.916 103.027,153.397 	"/>
	<polygon clip-path="url(#SVGID_6_)" fill="#6A70B5" points="98.975,156.622 100.264,163.99 96.128,156.746 98.947,155.798 	"/>
	<polyline clip-path="url(#SVGID_6_)" fill="#6A70B5" points="86.29,153.947 82.498,162.709 77.791,159.317 82.754,152.176 	"/>
	<path clip-path="url(#SVGID_6_)" fill="#6A70B5" d="M87.991,140.89c1.682,6.695,1.202,9.293,7.196,7.787
		c6.661-1.674,4.344-3.569,2.661-10.264c-1.682-6.695-6.031-14.665-8.753-13.981C86.373,125.116,86.308,134.195,87.991,140.89"/>
	<path clip-path="url(#SVGID_6_)" fill="#FEF3F6" d="M77.035,161.563l6.478-6.985c5.116,4.142,12.561,4.528,18.151,0.487
		c6.685-4.835,8.186-14.174,3.352-20.86l-11.555,8.355c-1.093-0.984-2.956-1.989-5.257-3.708c-5.532-4.13-13.935-7.566-15.615-5.317
		c-1.678,2.248,4.002,9.331,9.534,13.461c0.952,0.712,1.778,1.369,2.512,1.945l-3.832,2.77c0.027,0.037,0.053,0.073,0.079,0.109
		l-0.1-0.105l-7.057,5.082L77.035,161.563z M100.979,141.186c-0.204-0.814,0.289-1.64,1.104-1.844
		c0.813-0.205,1.639,0.289,1.843,1.103c0.205,0.814-0.289,1.64-1.103,1.845C102.009,142.494,101.183,142,100.979,141.186"/>
</g>
</svg>
