<?xml version="1.0" encoding="utf-8"?>
<!-- Generator: Adobe Illustrator 16.0.0, SVG Export Plug-In . SVG Version: 6.00 Build 0)  -->
<!DOCTYPE svg PUBLIC "-//W3C//DTD SVG 1.1//EN" "http://www.w3.org/Graphics/SVG/1.1/DTD/svg11.dtd">
<svg version="1.1" id="Layer_1" xmlns="http://www.w3.org/2000/svg" xmlns:xlink="http://www.w3.org/1999/xlink" x="0px" y="0px"
	 width="1191.82px" height="304.891px" viewBox="0 0 1191.82 304.891" enable-background="new 0 0 1191.82 304.891"
	 xml:space="preserve">
<rect fill="#EE7551" width="1183.824" height="304.891"/>
<g>
	<defs>
		<rect id="SVGID_1_" width="1191.824" height="304.891"/>
	</defs>
	<clipPath id="SVGID_2_">
		<use xlink:href="#SVGID_1_"  overflow="visible"/>
	</clipPath>
	<path clip-path="url(#SVGID_2_)" fill="#FEF3F6" d="M1192.513-8.44H849.88c-6.953-4.499-15.234-7.121-24.134-7.121
		c-24.576,0-44.5,19.923-44.5,44.5c0,5.261,0.919,10.306,2.596,14.99c-9.117,2.264-16.899,7.901-21.946,15.513
		c-7.592-6.025-17.189-9.632-27.633-9.632c-24.576,0-44.5,19.923-44.5,44.5c0,15.518,7.946,29.173,19.988,37.137
		c-6.368,7.927-10.188,17.99-10.188,28.951c0,23.62,17.704,43.093,40.563,45.905c2.531,6.916,6.675,13.052,11.963,17.972
		c-9.082,8.448-14.769,20.495-14.769,33.877c0,25.554,20.714,46.268,46.267,46.268c4.638,0,9.112-0.69,13.334-1.959
		c7.388,15.732,23.365,26.631,41.897,26.631c16.452,0,30.888-8.594,39.091-21.531h314.603V-8.44z"/>
	<path clip-path="url(#SVGID_2_)" fill="#F05632" d="M383.607,216.819c1.687-1.02,3.351-2.085,4.988-3.204
		c3.385-2.313,6.73-4.953,8.616-8.592c3.18-6.134,1.434-13.892-2.542-19.542c-13.628-19.363-25.971-25.438-4.28-49.298
		c9.406-10.347,21.29-18.773,27.967-31.061c17.561-32.318-8.375-61.747-38.858-70.012c-46.978-12.738-91.638,4.065-138.32,3.925
		c-22.717-0.069-47.567-12.57-70.467-15.649c-24.266-3.263-49.25-2.945-72.711,4.696c-13.116,4.272-25.96,11.132-34,22.341
		c-8.256,11.51-10.71,26.524-19.555,37.589c-6.187,7.739-14.833,12.594-23.982,16.014c-7.299,2.729-22.483,2.928-26.252,9.059
		c-4.242,6.902,0.013,30.143,0.019,38.529c0.01,13.171,0.019,26.343,0.028,39.515c0.005,6.564-0.005,111.407,0.081,111.407
		c67.129,0.291,134.258,0.582,201.387,0.874c23.495,0,48.81-2.631,71.884,2.026c0.453-16.927,1.666-35.683,13.78-47.514
		c5.849-5.711,13.581-9.039,21.271-11.815C329.712,236.341,359.141,231.59,383.607,216.819"/>
</g>
<text transform="matrix(1 0 0 1 93.856 105.2959)"><tspan x="0" y="0" fill="#FFFFFF" font-family="'Manrope-Bold'" font-size="44">In</tspan><tspan x="39.863" y="0" fill="#FFFFFF" font-family="'Manrope-Bold'" font-size="44">f</tspan><tspan x="55.659" y="0" fill="#FFFFFF" font-family="'Manrope-Bold'" font-size="44">orma</tspan><tspan x="165.305" y="0" fill="#FFFFFF" font-family="'Manrope-Bold'" font-size="44">ç</tspan><tspan x="190.01" y="0" fill="#FFFFFF" font-family="'Manrope-Bold'" font-size="44">ões </tspan></text>
<text transform="matrix(1 0 0 1 93.856 151.2759)"><tspan x="0" y="0" fill="#FFFFFF" font-family="'Manrope-Bold'" font-size="44">aé</tspan><tspan x="51.831" y="0" fill="#FFFFFF" font-family="'Manrope-Bold'" font-size="44">re</tspan><tspan x="95.082" y="0" fill="#FFFFFF" font-family="'Manrope-Bold'" font-size="44">as sob</tspan><tspan x="231.172" y="0" fill="#FFFFFF" font-family="'Manrope-Bold'" font-size="44">r</tspan><tspan x="248.332" y="0" fill="#FFFFFF" font-family="'Manrope-Bold'" font-size="44">e</tspan></text>
<text transform="matrix(1 0 0 1 93.856 197.2563)" fill="#2B3874" font-family="'Manrope-Bold'" font-size="44">o</text>
<text transform="matrix(1 0 0 1 121.0479 197.2563)" fill="#FFFFFF" font-family="'Manrope-Bold'" font-size="44"> </text>
<text transform="matrix(1 0 0 1 129.8477 197.2563)"><tspan x="0" y="0" fill="#2B3874" font-family="'Manrope-Bold'" font-size="44">C</tspan><tspan x="32.494" y="0" fill="#2B3874" font-family="'Manrope-Bold'" font-size="44" letter-spacing="-1">O</tspan><tspan x="64.152" y="0" fill="#2B3874" font-family="'Manrope-Bold'" font-size="44">VID-19</tspan></text>
<g>
	<defs>
		<rect id="SVGID_3_" width="1191.824" height="304.891"/>
	</defs>
	<clipPath id="SVGID_4_">
		<use xlink:href="#SVGID_3_"  overflow="visible"/>
	</clipPath>
	<path clip-path="url(#SVGID_4_)" fill="#2B3874" d="M185.25,254.624h-82.325c-4.988,0-9.07-4.081-9.07-9.069v-21.361
		c0-4.988,4.082-9.069,9.07-9.069h82.325c4.988,0,9.069,4.081,9.069,9.069v21.361C194.318,250.542,190.238,254.624,185.25,254.624"
		/>
</g>
<text transform="matrix(1 0 0 1 110.1563 240.0269)"><tspan x="0" y="0" fill="#FFFFFF" font-family="'Manrope-SemiBold'" font-size="17.0338" letter-spacing="-1">V</tspan><tspan x="9.701" y="0" fill="#FFFFFF" font-family="'Manrope-SemiBold'" font-size="17.0338">eriﬁ</tspan><tspan x="42.022" y="0" fill="#FFFFFF" font-family="'Manrope-SemiBold'" font-size="17.0338">c</tspan><tspan x="51.603" y="0" fill="#FFFFFF" font-family="'Manrope-SemiBold'" font-size="17.0338">ar</tspan></text>
<g>
	<defs>
		<rect id="SVGID_5_" width="1191.824" height="304.891"/>
	</defs>
	<clipPath id="SVGID_6_">
		<use xlink:href="#SVGID_5_"  overflow="visible"/>
	</clipPath>
	<path clip-path="url(#SVGID_6_)" fill="#2B3874" d="M1077.16,106.23c1.171,15.157-9.491,28.613-23.809,30.049
		c-10.961,1.099-20.876-5.169-25.456-14.958l-12.992,1.145l-9.809,4.732c-2.245,1.079-3.753,3.223-4.097,5.686
		c-0.928,6.638-2.609,13.032-4.944,19.108c-0.794,2.058-0.656,4.354,0.423,6.274l3.495,6.248l9.716,6.52
		c5.123-1.959,11.086-1.489,15.992,1.8c8.313,5.58,10.304,17.063,4.123,25.146c-5.322,6.963-15.217,8.876-22.749,4.4
		c-4.798-2.845-7.698-7.571-8.406-12.621l-10.768-7.221l-6.779-0.828c-2.329-0.284-4.646,0.517-6.34,2.138
		c-5.719,5.447-12.178,10.127-19.202,13.873c-2.361,1.259-3.878,3.675-4.044,6.342l-0.86,13.727l4.264,16.911
		c7.254,2.025,13.251,7.776,15.223,15.6c2.979,11.828-4.369,23.828-16.348,26.495c-10.81,2.41-21.896-3.892-25.33-14.422
		c-2.674-8.221-0.219-16.719,5.433-22.272l-4.282-17.01l-6.611-10.63c-1.774-2.853-4.911-4.541-8.274-4.534h-0.052
		c-5.791,0-11.457-0.576-16.938-1.654c-3.264-0.648-6.633,0.384-8.923,2.8l-8.735,9.22l-9.783,20.293
		c2.29,4.653,2.495,10.272,0.073,15.31c-4.356,9.027-15.462,12.615-24.339,7.624c-7.598-4.281-10.888-13.733-7.577-21.809
		c2.257-5.506,6.936-9.187,12.23-10.417l9.842-20.426l1.935-13.707c0.35-2.529-0.616-5.077-2.603-6.679
		c-7.83-6.354-14.542-14.025-19.79-22.683c-1.304-2.151-3.646-3.455-6.162-3.475l-13.687-0.133l-14.986,4.713
		c-1.052,9.318-7.432,17.599-16.949,20.591c-12.788,4.023-26.409-3.005-30.56-15.713c-4.149-12.701,2.859-26.594,15.547-30.79
		c8.883-2.939,18.215-0.497,24.53,5.507l15.905-5.004l11.615-8.281c1.728-1.224,2.647-3.276,2.476-5.38
		c-0.192-2.337-0.291-4.693-0.291-7.076c0-12.946,2.845-25.237,7.929-36.291c0.742-1.621,0.721-3.488-0.059-5.09l-3.443-7.035
		l-9.338-7.05c-5.229,1.675-11.153,0.875-15.866-2.68c-7.995-6.036-9.345-17.612-2.726-25.337c5.698-6.651,15.686-8.015,22.96-3.13
		c4.633,3.111,7.267,7.982,7.69,13.065l10.353,7.811l10.43,1.859c7.592-7.049,16.442-12.761,26.164-16.765l2.45-14.879L880.96,9.868
		c-9.148-2.356-16.573-9.366-18.572-18.711c-2.82-13.204,6.254-26.065,20.273-28.719c14.012-2.654,27.658,5.891,30.479,19.095
		c2.112,9.882-2.435,19.565-10.736,24.927l2.919,14.495l7.17,11.437c0.47,0.748,1.289,1.198,2.171,1.198h0.013
		c16.415,0,31.783,4.567,44.908,12.496c0.722,0.43,1.607,0.49,2.37,0.132l11.225-5.202l13.105-14.177
		c-0.787-5.084,0.661-10.471,4.428-14.542c6.804-7.353,18.453-7.539,25.481-0.185c6.162,6.453,6.401,16.745,0.551,23.483
		c-3.786,4.362-9.221,6.374-14.528,5.977L989.109,55.75l-4.256,11.45c-0.298,0.794-0.165,1.681,0.331,2.369
		c5.169,7.096,9.293,14.998,12.14,23.484c0.787,2.33,2.641,4.143,5.011,4.812l10.656,2.985l13.847-1.225
		c3.395-9.789,11.874-17.195,22.285-18.241C1063.438,79.948,1075.995,91.074,1077.16,106.23"/>
	<path clip-path="url(#SVGID_6_)" fill="#515992" d="M914.676,56.212c35.647,0,64.546,28.898,64.546,64.546
		c0,35.648-28.898,64.546-64.546,64.546s-64.547-28.897-64.547-64.546C850.129,85.11,879.028,56.212,914.676,56.212"/>
	<path clip-path="url(#SVGID_6_)" fill="#92A3BD" d="M869.804,120.758c0-32.304,23.729-59.064,54.709-63.801
		c-3.207-0.491-6.492-0.745-9.838-0.745c-35.647,0-64.546,28.898-64.546,64.546c0,35.649,28.898,64.546,64.546,64.546
		c3.346,0,6.631-0.254,9.838-0.744C893.532,179.823,869.804,153.062,869.804,120.758"/>
	<path clip-path="url(#SVGID_6_)" fill="#515992" d="M1098.505,159.833c10.151,0,18.382,8.229,18.382,18.381
		s-8.23,18.381-18.382,18.381s-18.382-8.229-18.382-18.381S1088.354,159.833,1098.505,159.833"/>
	<path clip-path="url(#SVGID_6_)" fill="#515992" d="M801.049,215.181c6.705,0,12.141,5.437,12.141,12.142
		s-5.436,12.141-12.141,12.141s-12.142-5.436-12.142-12.141S794.344,215.181,801.049,215.181"/>
	<path clip-path="url(#SVGID_6_)" fill="#515992" d="M1023.962,229.384c9.876,0,17.882,8.006,17.882,17.882
		c0,9.877-8.006,17.883-17.882,17.883c-9.878,0-17.884-8.006-17.884-17.883C1006.078,237.39,1014.084,229.384,1023.962,229.384"/>
	<path clip-path="url(#SVGID_6_)" fill="#2B3874" d="M894.863,86.286c9.208,0,16.672,7.464,16.672,16.672
		c0,9.207-7.464,16.672-16.672,16.672s-16.673-7.465-16.673-16.672C878.19,93.75,885.655,86.286,894.863,86.286"/>
	<path clip-path="url(#SVGID_6_)" fill="#2B3874" d="M908.246,143.395c6.268,0,11.349,5.081,11.349,11.348
		c0,6.267-5.081,11.348-11.349,11.348s-11.349-5.081-11.349-11.348C896.897,148.476,901.979,143.395,908.246,143.395"/>
	<path clip-path="url(#SVGID_6_)" fill="#2B3874" d="M943.879,111.229c5.263,0,9.528,4.266,9.528,9.529
		c0,5.263-4.266,9.529-9.528,9.529c-5.264,0-9.528-4.266-9.528-9.529C934.351,115.496,938.615,111.229,943.879,111.229"/>
	<polygon clip-path="url(#SVGID_6_)" fill="#6A70B5" points="597.478,144.966 634.69,127.179 605.789,169.34 	"/>
	<polygon clip-path="url(#SVGID_6_)" fill="#6A70B5" points="582.955,223.949 589.464,255.183 570.435,224.849 582.735,220.442 	"/>
	<polygon clip-path="url(#SVGID_6_)" fill="#6A70B5" points="563.34,230.981 563.3,262.869 551.293,229.397 563.83,227.502 	"/>
	<polyline clip-path="url(#SVGID_6_)" fill="#2B3874" points="512.057,210.366 489.655,244.349 472.401,226.623 498.521,200.312 	
		"/>
	<path clip-path="url(#SVGID_6_)" fill="#FEF3F6" d="M467.565,235.493l32.371-24.536c18.414,21.176,49.381,28.307,75.84,15.474
		c31.649-15.351,44.861-53.45,29.511-85.099l-54.693,26.527c-5.259,2.494-39.05,18.957-41.778,20.264l-18.137,8.797
		c0.083,0.171,0.168,0.343,0.252,0.513l-0.345-0.513l-33.389,16.114L467.565,235.493z M583.171,167.658
		c-0.257-3.569,2.429-6.669,5.997-6.926c3.569-0.257,6.67,2.428,6.927,5.997c0.256,3.568-2.429,6.67-5.997,6.926
		C586.528,173.912,583.429,171.227,583.171,167.658"/>
	<path clip-path="url(#SVGID_6_)" fill="#6A70B5" d="M573.912,181.221c-29.411-1.026-39.484-6.065-40.403,20.269
		c-1.021,29.261,26.392,23.207,55.803,24.233c29.412,1.026,49.012-3.957,50.704-20.517
		C641.23,193.303,603.322,182.248,573.912,181.221"/>
	<path clip-path="url(#SVGID_6_)" fill="#F05632" d="M564.679,158.727c0,0-16.5-28.5-70.5-2c-54,26.5-5.5,39-5.5,39L564.679,158.727
		z"/>
	<path clip-path="url(#SVGID_6_)" fill="#F05632" d="M560.512,160.227c0,0,10.5,12.5,6.833,20.5
		c8.167,0.667,9.334,0.167,9.334,0.167l-12-22.167L560.512,160.227z"/>
	<path clip-path="url(#SVGID_6_)" fill="#F05632" d="M490.696,196.44l20.655,14.447l3.054-3.207c0,0-14.985-6.476-15.292-15.27
		c-4.173,1.681-10.309,2.969-6.195,7.849c3.349,3.974,8.257,7.144,12.82,9.521c9.479,4.94,20.535,6.957,31.118,5.249
		c-1.308-2.676-2.203-5.554-2.643-8.5c-7.196,2.681-15.304,2.838-22.597,0.438c-6.509-2.143-12.795-7.009-13.816-13.783"/>
	
		<path clip-path="url(#SVGID_6_)" fill="none" stroke="#FFFFFF" stroke-width="5" stroke-linecap="round" stroke-miterlimit="10" d="
		M622.013,188.56c4.301-7.117,5.922-12.295,9.961-19.563c4.039-7.27,10.863-13.933,19.177-14.124"/>
	<polygon clip-path="url(#SVGID_6_)" fill="#A22C22" points="646.31,149.149 647.746,160.96 659.683,153.515 672.925,155.198 
		675.272,142.004 660.24,141.857 	"/>
	
		<path clip-path="url(#SVGID_6_)" fill="none" stroke="#C23826" stroke-width="3" stroke-linecap="round" stroke-miterlimit="10" d="
		M578.962,167.135c5.376-1.535,10.075-5.308,12.736-10.225"/>
	<polygon clip-path="url(#SVGID_6_)" fill="#FEF3F6" points="707.013,140.06 680.013,148.06 711.513,162.06 	"/>
	<path clip-path="url(#SVGID_6_)" fill="#EE7551" d="M474.012,176.935c0.5-0.75,35.625-30,63.625-27.5
		c-30,7.875-45.125,20.375-58,29.75C471.865,184.845,474.012,176.935,474.012,176.935"/>
	<path clip-path="url(#SVGID_6_)" fill="#A22C22" d="M506.095,174.81c0,2.992-2.425,5.417-5.416,5.417
		c-2.992,0-5.417-2.425-5.417-5.417s2.425-5.417,5.417-5.417C503.67,169.393,506.095,171.818,506.095,174.81"/>
	
		<path clip-path="url(#SVGID_6_)" fill="none" stroke="#FFFFFF" stroke-width="5" stroke-linecap="round" stroke-miterlimit="10" d="
		M500.425,175.561c-7.715,7.932-11.854,19.216-11.1,30.254c0.755,11.038,6.393,21.653,15.115,28.461
		c12.881,10.053,29.231,12.594,45.572,12.534c6.694-0.024,14.708-1.622,21.072-3.695c9.545-3.11,17.357-9.937,24.678-16.805"/>
</g>
</svg>
