<?xml version="1.0" encoding="utf-8"?>
<!-- Generator: Adobe Illustrator 16.0.0, SVG Export Plug-In . SVG Version: 6.00 Build 0)  -->
<!DOCTYPE svg PUBLIC "-//W3C//DTD SVG 1.1//EN" "http://www.w3.org/Graphics/SVG/1.1/DTD/svg11.dtd">
<svg version="1.1" id="Layer_1" xmlns="http://www.w3.org/2000/svg" xmlns:xlink="http://www.w3.org/1999/xlink" x="0px" y="0px"
	 width="37.333px" height="31.902px" viewBox="0 0 37.333 31.902" enable-background="new 0 0 37.333 31.902" xml:space="preserve">
<polygon fill="#6A70B5" points="426.539,112.636 420.333,110.201 425.481,116.663 "/>
<polygon fill="#6A70B5" points="429.796,125.203 429.109,130.313 431.824,125.203 429.791,124.634 "/>
<polygon fill="#6A70B5" points="433.04,126.109 433.416,131.25 434.963,125.713 432.919,125.553 "/>
<polyline fill="#6A70B5" points="441.068,122.191 445.074,127.41 447.65,124.352 443.134,120.413 "/>
<path fill="#6A70B5" d="M437.739,113.75c0,4.757,0.757,6.412-3.502,6.412c-4.732,0-3.502-1.655-3.502-6.412
	c0-4.757,1.568-10.814,3.502-10.814S437.739,108.993,437.739,113.75"/>
<path fill="#F07552" d="M449.944,121.985l-5.57-2.211l-0.049,0.087c0.011-0.029,0.023-0.058,0.034-0.087l-3.026-1.207
	c0.394-0.508,0.836-1.086,1.353-1.722c3.003-3.689,5.61-9.376,4.11-10.597c-1.5-1.221-6.539,2.487-9.542,6.176
	c-1.25,1.535-2.325,2.52-2.891,3.36l-9.125-3.643c-2.109,5.281,0.463,11.27,5.743,13.377c4.415,1.764,9.325,0.254,12.048-3.373
	l5.504,3.58L449.944,121.985z M428.061,117.176c-0.578,0-1.047-0.469-1.047-1.047s0.469-1.047,1.047-1.047
	c0.579,0,1.047,0.469,1.047,1.047S428.64,117.176,428.061,117.176"/>
<text transform="matrix(1 0 0 1 456.9941 125.6216)" fill="#6A70B5" font-family="'Arlon-SemiBold'" font-size="27.4208">sal</text>
<text transform="matrix(1 0 0 1 493.1895 125.6216)"><tspan x="0" y="0" fill="#F07552" font-family="'Arlon-SemiBold'" font-size="27.4208">v</tspan><tspan x="16.293" y="0" fill="#F07552" font-family="'Arlon-SemiBold'" font-size="27.4208">oo</tspan></text>
<polygon fill="#2B3874" points="424.527,282.976 418.321,280.54 423.469,287.001 "/>
<polygon fill="#2B3874" points="427.784,295.542 427.097,300.653 429.813,295.542 427.779,294.974 "/>
<polygon fill="#2B3874" points="431.027,296.448 431.403,301.589 432.951,296.053 430.908,295.893 "/>
<polyline fill="#2B3874" points="439.057,292.53 443.062,297.749 445.639,294.691 441.123,290.752 "/>
<path fill="#2B3874" d="M435.727,284.089c0,4.757,0.757,6.412-3.502,6.412c-4.733,0-3.502-1.655-3.502-6.412
	s1.567-10.813,3.502-10.813C434.159,273.276,435.727,279.333,435.727,284.089"/>
<path fill="#FFFFFF" d="M447.932,292.325l-5.57-2.212l-0.049,0.087c0.011-0.029,0.023-0.057,0.034-0.085l-3.026-1.209
	c0.394-0.508,0.836-1.086,1.353-1.722c3.003-3.689,5.61-9.376,4.11-10.598c-1.5-1.221-6.539,2.487-9.542,6.177
	c-1.25,1.534-2.325,2.52-2.891,3.359l-9.125-3.642c-2.108,5.28,0.463,11.269,5.744,13.377c4.414,1.763,9.324,0.254,12.048-3.373
	l5.503,3.581L447.932,292.325z M426.049,287.516c-0.578,0-1.047-0.47-1.047-1.047c0-0.578,0.469-1.048,1.047-1.048
	c0.579,0,1.047,0.47,1.047,1.048C427.096,287.046,426.628,287.516,426.049,287.516"/>
<text transform="matrix(1 0 0 1 454.9824 295.9614)" fill="#2B3874" font-family="'Arlon-SemiBold'" font-size="27.4208">sal</text>
<text transform="matrix(1 0 0 1 491.1777 295.9614)"><tspan x="0" y="0" fill="#FFFFFF" font-family="'Arlon-SemiBold'" font-size="27.4208">v</tspan><tspan x="16.293" y="0" fill="#FFFFFF" font-family="'Arlon-SemiBold'" font-size="27.4208">oo</tspan></text>
<path fill="#FFFFFF" d="M451.897,4.447h-9.59c-2.176,0-3.955-1.78-3.955-3.954v-7.787c0-2.175,1.779-3.955,3.955-3.955h9.59
	c2.175,0,3.955,1.78,3.955,3.955v7.787C455.853,2.667,454.072,4.447,451.897,4.447"/>
<line fill="none" stroke="#F05632" stroke-width="5" stroke-linecap="round" stroke-miterlimit="10" x1="447.368" y1="0" x2="461.535" y2="-19.833"/>
<path fill="#FFFFFF" d="M22.19,28.728h-9.59c-2.176,0-3.955-1.78-3.955-3.954v-7.787c0-2.175,1.779-3.955,3.955-3.955h9.59
	c2.175,0,3.955,1.78,3.955,3.955v7.787C26.146,26.947,24.365,28.728,22.19,28.728"/>
<polyline fill="none" stroke="#F05632" stroke-width="5" stroke-linecap="round" stroke-miterlimit="10" points="9.161,13.947 
	17.661,24.28 31.828,4.447 "/>
</svg>
