<?xml version="1.0" encoding="utf-8"?>
<!-- Generator: Adobe Illustrator 16.0.0, SVG Export Plug-In . SVG Version: 6.00 Build 0)  -->
<!DOCTYPE svg PUBLIC "-//W3C//DTD SVG 1.1//EN" "http://www.w3.org/Graphics/SVG/1.1/DTD/svg11.dtd">
<svg version="1.1" id="Layer_1" xmlns="http://www.w3.org/2000/svg" xmlns:xlink="http://www.w3.org/1999/xlink" x="0px" y="0px"
	 width="85px" height="86.186px" viewBox="0 0 85 86.186" enable-background="new 0 0 85 86.186" xml:space="preserve">
<path fill="#2B3874" d="M63.279,63.786l-6.121-6.121l6.121-6.122c1.69-1.691,4.432-1.691,6.123,0c1.689,1.691,1.689,4.432,0,6.122
	L63.279,63.786z"/>
<path fill="#2B3874" d="M29.611,30.117l-6.123-6.121l6.123-6.122c1.689-1.691,4.432-1.691,6.121,0c1.69,1.69,1.69,4.431,0,6.122
	L29.611,30.117z"/>
<path fill="#515992" d="M22.001,18.401c-3.639-1.936-7.913-1.843-11.436,0.248c-0.604,0.358-0.996,0.986-1.053,1.687
	c-0.053,0.635,0.18,1.258,0.627,1.705c0.045,0.045,0.09,0.088,0.141,0.131l27.193,22.752l11.342-12.275L22.001,18.401z"/>
<path fill="#515992" d="M68.875,65.273L54.889,38.95L42.968,50.539l22.136,26.454c0.042,0.052,0.086,0.098,0.13,0.143
	c0.447,0.446,1.071,0.679,1.706,0.626c0.699-0.058,1.327-0.448,1.685-1.052C70.716,73.187,70.809,68.913,68.875,65.273"/>
<path fill="#D5E4F5" d="M76.707,22.082L29.71,65.439l3.895,8.743c0.736,1.646,0.391,3.594-0.865,4.848l-2.077,2.035
	c-0.996,1.039-2.685,0.779-3.377-0.39l-7.834-12.856L6.595,59.984c-1.211-0.735-1.385-2.381-0.39-3.375l2.035-2.078
	c1.255-1.256,3.202-1.602,4.848-0.866l8.743,3.896l43.361-46.992c1.558-1.775,3.766-2.727,5.974-2.727
	c2.078,0,4.112,0.779,5.8,2.467C80.517,13.858,80.083,19.096,76.707,22.082"/>
<path fill="#92A3BD" d="M76.707,22.082L29.71,65.439l3.895,8.743c0.736,1.646,0.391,3.594-0.865,4.848l-2.077,2.035
	c-0.996,1.039-2.685,0.779-3.377-0.39l-7.834-12.856l57.515-57.511C80.517,13.858,80.083,19.096,76.707,22.082"/>
<path fill="#F05632" d="M45.142,12.426c-16.013,0.005-28.988,12.988-28.983,28.999c0.005,16.012,12.987,28.988,28.999,28.983
	C61.167,70.404,74.14,57.426,74.14,41.417C74.123,25.41,61.148,12.44,45.142,12.426 M45.142,65.495
	c-13.289,0.003-24.063-10.768-24.067-24.056c-0.001-5.537,1.907-10.905,5.403-15.198l33.848,33.847
	C56.042,63.59,50.675,65.5,45.142,65.495 M63.812,56.603L29.964,22.754c10.311-8.382,25.465-6.819,33.848,3.492
	C71,35.087,71,47.76,63.812,56.603"/>
</svg>
