<?xml version="1.0" encoding="utf-8"?>
<!-- Generator: Adobe Illustrator 16.0.0, SVG Export Plug-In . SVG Version: 6.00 Build 0)  -->
<!DOCTYPE svg PUBLIC "-//W3C//DTD SVG 1.1//EN" "http://www.w3.org/Graphics/SVG/1.1/DTD/svg11.dtd">
<svg version="1.1" id="Layer_1" xmlns="http://www.w3.org/2000/svg" xmlns:xlink="http://www.w3.org/1999/xlink" x="0px" y="0px"
	 width="85px" height="86.186px" viewBox="0 0 85 86.186" enable-background="new 0 0 85 86.186" xml:space="preserve">
<path fill="#EE7551" d="M82.74,43.679c0-0.492-0.009-0.982-0.026-1.47C81.94,20.518,64.112,3.17,42.232,3.17
	c-21.88,0-39.707,17.347-40.481,39.038c-0.018,0.488-0.027,0.978-0.027,1.47c0,22.372,20.808,39.038,40.508,39.038
	C62.289,82.717,82.74,66.051,82.74,43.679"/>
<path fill="#F05632" d="M42.232,81.246c-21.879,0-39.704-17.348-40.478-39.038c-0.018,0.489-0.03,0.978-0.03,1.471
	c0,22.371,18.136,40.507,40.508,40.507S82.74,66.05,82.74,43.679c0-0.493-0.012-0.982-0.028-1.471
	C81.936,63.898,64.111,81.246,42.232,81.246"/>
<path fill="#D5E4F5" d="M76.002,42.208C75.232,24.222,60.407,9.876,42.232,9.876S9.231,24.222,8.462,42.208
	c-0.021,0.487,0,33.122,33.77,33.122C76.002,75.33,76.023,42.695,76.002,42.208"/>
<path fill="#92A3BD" d="M42.232,74.54c-18.175,0-32.998-14.347-33.768-32.332c-0.021,0.488-0.033,0.978-0.033,1.471
	c0,18.668,15.133,33.802,33.801,33.802s33.801-15.134,33.801-33.802c0-0.493-0.012-0.983-0.032-1.471
	C75.23,60.193,60.407,74.54,42.232,74.54"/>
<path fill="#4C596F" d="M54.51,31.818c-0.964-0.95-2.516-0.938-3.465,0.024l-5.749,5.829l0.577,2.775l2.686,0.894l5.975-6.057
	C55.485,34.321,55.473,32.769,54.51,31.818"/>
<path fill="#4C596F" d="M38.764,37.895L25.725,26.275c-1.01-0.901-2.559-0.811-3.459,0.199c-0.9,1.01-0.811,2.559,0.2,3.459
	l13.295,11.848l2.771-0.924L38.764,37.895z"/>
<path fill="#92A3BD" d="M59.581,59.476c-0.278,0-0.559-0.094-0.789-0.286L43.274,46.154c-0.518-0.436-0.585-1.209-0.15-1.727
	c0.436-0.518,1.209-0.585,1.727-0.15l15.52,13.035c0.517,0.436,0.584,1.209,0.148,1.727C60.276,59.328,59.929,59.476,59.581,59.476"
	/>
<path fill="#404954" d="M35.761,41.781l2.288,2.039l2.939-0.998l-0.16-3.089l-2.064-1.839C37.328,38.758,36.241,40.14,35.761,41.781
	"/>
<path fill="#404954" d="M45.295,37.672l-1.944,1.972v3.871h3.063l2.145-2.174C47.969,39.747,46.795,38.438,45.295,37.672"/>
<path fill="#EE7551" d="M46.153,42.208c-0.595-1.587-2.125-2.717-3.92-2.717c-1.795,0-3.327,1.13-3.922,2.717
	c-0.172,0.458-0.011,4.188,3.922,4.188S46.325,42.666,46.153,42.208"/>
<path fill="#F05632" d="M42.232,44.925c-1.795,0-3.326-1.129-3.921-2.717c-0.172,0.458-0.266,0.953-0.266,1.47
	c0,2.313,1.874,4.187,4.187,4.187c2.313,0,4.187-1.875,4.187-4.187c0-0.517-0.095-1.012-0.266-1.47
	C45.558,43.795,44.027,44.925,42.232,44.925"/>
<path fill="#6A70B5" d="M43.459,17.978v-3.802c0-0.678-0.55-1.227-1.228-1.227c-0.677,0-1.227,0.549-1.227,1.227v3.802
	c0,0.678,0.549,1.227,1.227,1.227C42.911,19.204,43.459,18.655,43.459,17.978"/>
<path fill="#6A70B5" d="M41.004,69.38v3.802c0,0.678,0.549,1.227,1.228,1.227c0.678,0,1.227-0.549,1.227-1.227V69.38
	c0-0.679-0.551-1.228-1.227-1.228C41.554,68.152,41.004,68.701,41.004,69.38"/>
<path fill="#6A70B5" d="M71.735,44.906c0.678,0,1.228-0.551,1.228-1.228s-0.55-1.227-1.228-1.227h-3.802
	c-0.678,0-1.227,0.55-1.227,1.227s0.549,1.228,1.227,1.228H71.735z"/>
<path fill="#6A70B5" d="M12.729,42.451c-0.678,0-1.227,0.55-1.227,1.228c0,0.677,0.549,1.228,1.227,1.228h3.802
	c0.678,0,1.227-0.551,1.227-1.228c0-0.678-0.549-1.228-1.227-1.228H12.729z"/>
</svg>
