<?xml version="1.0" encoding="utf-8"?>
<!-- Generator: Adobe Illustrator 16.0.0, SVG Export Plug-In . SVG Version: 6.00 Build 0)  -->
<!DOCTYPE svg PUBLIC "-//W3C//DTD SVG 1.1//EN" "http://www.w3.org/Graphics/SVG/1.1/DTD/svg11.dtd">
<svg version="1.1" id="Layer_1" xmlns="http://www.w3.org/2000/svg" xmlns:xlink="http://www.w3.org/1999/xlink" x="0px" y="0px"
	 width="331px" height="310px" viewBox="0 0 331 310" enable-background="new 0 0 331 310" xml:space="preserve">
<polygon fill="#6A70B5" points="-439.461,337.733 -445.667,335.298 -440.519,341.76 "/>
<polygon fill="#6A70B5" points="-436.204,350.3 -436.891,355.41 -434.176,350.3 -436.209,349.731 "/>
<polygon fill="#6A70B5" points="-432.96,351.206 -432.584,356.347 -431.037,350.811 -433.081,350.65 "/>
<polyline fill="#6A70B5" points="-424.932,347.288 -420.926,352.507 -418.35,349.449 -422.866,345.51 "/>
<path fill="#6A70B5" d="M-428.261,338.848c0,4.757,0.757,6.412-3.502,6.412c-4.732,0-3.502-1.655-3.502-6.412
	c0-4.757,1.568-10.814,3.502-10.814S-428.261,334.09-428.261,338.848"/>
<path fill="#F07552" d="M-416.056,347.082l-5.57-2.211l-0.049,0.087c0.011-0.029,0.023-0.058,0.034-0.087l-3.026-1.207
	c0.394-0.508,0.836-1.086,1.353-1.722c3.003-3.689,5.61-9.376,4.11-10.597c-1.5-1.221-6.539,2.487-9.542,6.176
	c-1.25,1.535-2.325,2.52-2.891,3.36l-9.125-3.643c-2.109,5.281,0.463,11.27,5.743,13.377c4.415,1.764,9.325,0.254,12.048-3.373
	l5.504,3.58L-416.056,347.082z M-437.939,342.273c-0.578,0-1.047-0.469-1.047-1.047s0.469-1.047,1.047-1.047
	c0.579,0,1.047,0.469,1.047,1.047S-437.36,342.273-437.939,342.273"/>
<text transform="matrix(1 0 0 1 -409.0059 350.7188)" fill="#6A70B5" font-family="'Arlon-SemiBold'" font-size="27.4208">sal</text>
<text transform="matrix(1 0 0 1 -372.8105 350.7188)"><tspan x="0" y="0" fill="#F07552" font-family="'Arlon-SemiBold'" font-size="27.4208">v</tspan><tspan x="16.293" y="0" fill="#F07552" font-family="'Arlon-SemiBold'" font-size="27.4208">oo</tspan></text>
<polygon fill="#2B3874" points="-441.473,508.073 -447.679,505.637 -442.531,512.099 "/>
<polygon fill="#2B3874" points="-438.216,520.639 -438.903,525.75 -436.188,520.639 -438.221,520.071 "/>
<polygon fill="#2B3874" points="-434.973,521.545 -434.597,526.687 -433.049,521.15 -435.092,520.99 "/>
<polyline fill="#2B3874" points="-426.943,517.627 -422.938,522.846 -420.361,519.788 -424.877,515.85 "/>
<path fill="#2B3874" d="M-430.273,509.187c0,4.757,0.757,6.412-3.502,6.412c-4.733,0-3.502-1.655-3.502-6.412
	s1.567-10.813,3.502-10.813C-431.841,498.373-430.273,504.43-430.273,509.187"/>
<path fill="#FFFFFF" d="M-418.068,517.422l-5.57-2.212l-0.049,0.087c0.011-0.029,0.023-0.057,0.034-0.085l-3.026-1.209
	c0.394-0.508,0.836-1.086,1.353-1.722c3.003-3.689,5.61-9.376,4.11-10.598c-1.5-1.221-6.539,2.487-9.542,6.177
	c-1.25,1.534-2.325,2.52-2.891,3.359l-9.125-3.642c-2.108,5.28,0.463,11.269,5.744,13.377c4.414,1.763,9.324,0.254,12.048-3.373
	l5.503,3.581L-418.068,517.422z M-439.951,512.613c-0.578,0-1.047-0.47-1.047-1.047c0-0.578,0.469-1.048,1.047-1.048
	c0.579,0,1.047,0.47,1.047,1.048C-438.904,512.144-439.372,512.613-439.951,512.613"/>
<text transform="matrix(1 0 0 1 -411.0176 521.0586)" fill="#2B3874" font-family="'Arlon-SemiBold'" font-size="27.4208">sal</text>
<text transform="matrix(1 0 0 1 -374.8223 521.0586)"><tspan x="0" y="0" fill="#FFFFFF" font-family="'Arlon-SemiBold'" font-size="27.4208">v</tspan><tspan x="16.293" y="0" fill="#FFFFFF" font-family="'Arlon-SemiBold'" font-size="27.4208">oo</tspan></text>
<g>
	<path fill="#FFFFFF" d="M286.345,154.938c0,66.177-53.646,119.823-119.824,119.823c-66.176,0-119.822-53.646-119.822-119.823
		S100.345,35.115,166.521,35.115C232.699,35.115,286.345,88.762,286.345,154.938"/>
	<path fill="#FFFFFF" d="M167.047,289.084c-73.801,0-133.842-60.041-133.842-133.842S93.246,21.399,167.047,21.399
		S300.89,81.441,300.89,155.242S240.848,289.084,167.047,289.084 M167.047,28.399c-69.941,0-126.842,56.9-126.842,126.843
		c0,69.941,56.9,126.842,126.842,126.842s126.843-56.9,126.843-126.842C293.89,85.3,236.988,28.399,167.047,28.399"/>
	<path fill="#2B3874" d="M239.116,182.198c-4.96,13.443-12.462,25.133-22.3,34.74c-11.197,10.934-25.86,19.623-43.581,25.821
		c-0.582,0.203-1.189,0.369-1.798,0.49c-0.807,0.159-1.625,0.245-2.438,0.258h-0.159c-0.865,0-1.736-0.089-2.599-0.258
		c-0.608-0.121-1.208-0.287-1.787-0.486c-17.742-6.188-32.423-14.873-43.632-25.808c-9.842-9.606-17.344-21.289-22.296-34.732
		c-9.008-24.442-8.494-51.369-8.082-73.007l0.007-0.333c0.083-1.787,0.137-3.664,0.166-5.736
		c0.151-10.176,8.241-18.594,18.418-19.161c21.219-1.184,37.633-8.104,51.659-21.775l0.122-0.112
		c2.328-2.136,5.263-3.184,8.183-3.141c2.815,0.037,5.621,1.083,7.867,3.141l0.119,0.112c14.027,13.671,30.442,20.592,51.661,21.775
		c10.178,0.567,18.268,8.985,18.418,19.161c0.03,2.087,0.083,3.961,0.167,5.736l0.004,0.141
		C247.646,130.703,248.156,157.684,239.116,182.198"/>
	<path fill="#6A70B5" d="M239.116,182.198c-4.96,13.443-12.462,25.133-22.3,34.74c-11.197,10.934-25.86,19.623-43.581,25.821
		c-0.582,0.203-1.189,0.369-1.798,0.49c-0.807,0.159-1.625,0.245-2.438,0.258V58.958c2.815,0.037,5.621,1.083,7.867,3.141
		l0.119,0.112c14.027,13.671,30.442,20.592,51.661,21.775c10.178,0.567,18.268,8.985,18.418,19.161
		c0.03,2.087,0.083,3.961,0.167,5.736l0.004,0.141C247.646,130.703,248.156,157.684,239.116,182.198"/>
	<path fill="#E6E7E8" d="M214.831,151.232c0,25.306-20.547,45.904-45.832,45.995h-0.161c-25.359,0-45.996-20.635-45.996-45.995
		c0-25.359,20.637-45.994,45.996-45.994h0.161C194.284,105.328,214.831,125.927,214.831,151.232"/>
	<path fill="#FFFFFF" d="M214.831,151.232c0,25.306-20.547,45.904-45.832,45.995v-91.989
		C194.284,105.328,214.831,125.927,214.831,151.232"/>
	<path fill="#F05632" d="M189.714,144.609L169,165.326l-4.477,4.476c-1.058,1.058-2.444,1.586-3.83,1.586
		c-1.387,0-2.771-0.528-3.83-1.586l-9.625-9.628c-2.114-2.113-2.114-5.54,0-7.655c2.112-2.115,5.543-2.115,7.658,0l5.797,5.798
		l21.364-21.364c2.114-2.116,5.545-2.116,7.656,0C191.829,139.067,191.829,142.497,189.714,144.609"/>
	<path fill="#EE7551" d="M189.714,144.609L169,165.326v-15.318l13.058-13.056c2.114-2.116,5.545-2.116,7.656,0
		C191.829,139.067,191.829,142.497,189.714,144.609"/>
	<path fill="#2B3874" d="M79.624,236.009l-46.039,20.63c0,0,0.207-14.584-3.543-22.959c-5.145-11.489-14.333-17.291-14.333-17.291
		l45.896-20.521c0,0,5.012,16.946,7.355,22.146C71.14,222.85,79.624,236.009,79.624,236.009"/>
	<path fill="#2B3874" d="M251.158,239.26l46.04,20.63c0,0-2.655-13.751,1.095-22.126c5.146-11.491,16.78-18.124,16.78-18.124
		l-45.895-20.521c0,0-5.013,16.946-7.355,22.146C259.644,226.101,251.158,239.26,251.158,239.26"/>
	<path fill="#6A70B5" d="M230.189,209.094l46.041,20.63c0,0,9-8.75,12.75-17.125c5.145-11.491,5.125-23.125,5.125-23.125
		l-45.895-20.521c0,0-5.013,16.946-7.355,22.146C238.676,195.935,230.189,209.094,230.189,209.094"/>
	<path fill="#191D47" d="M61.168,230.389c0,0,12.737,6.616,18.457,5.62c-4.999-8.162-8.749-13.745-8.749-13.745L61.168,230.389z"/>
	<path fill="#6A70B5" d="M107.208,209.759l-46.04,20.63c0,0-9-8.75-12.75-17.125c-5.146-11.49-5.125-23.125-5.125-23.125
		l45.894-20.521c0,0,5.013,16.946,7.356,22.146C98.722,196.6,107.208,209.759,107.208,209.759"/>
	<path fill="#191D47" d="M276.23,229.724c0,0-17.683,10.223-25.072,9.536c5.977-8.97,10.134-16.37,10.134-16.37L276.23,229.724z"/>
</g>
</svg>
